# Tiled2Unity generated file. Do not modify by hand.
# Wavefront file for 'Bosque_mesh_0002.obj'

# Vertices (Count = 208)
v -3 -1 0
v -4 -1 0
v -4 0 0
v -3 0 0
v -4 -1 0
v -5 -1 0
v -5 0 0
v -4 0 0
v -5 -1 0
v -6 -1 0
v -6 0 0
v -5 0 0
v -6 -1 0
v -7 -1 0
v -7 0 0
v -6 0 0
v -7 -1 0
v -8 -1 0
v -8 0 0
v -7 0 0
v -8 -1 0
v -9 -1 0
v -9 0 0
v -8 0 0
v -9 -1 0
v -10 -1 0
v -10 0 0
v -9 0 0
v -10 -1 0
v -11 -1 0
v -11 0 0
v -10 0 0
v -11 -1 0
v -12 -1 0
v -12 0 0
v -11 0 0
v -12 -1 0
v -13 -1 0
v -13 0 0
v -12 0 0
v -13 -1 0
v -14 -1 0
v -14 0 0
v -13 0 0
v -14 -1 0
v -15 -1 0
v -15 0 0
v -14 0 0
v -15 -1 0
v -16 -1 0
v -16 0 0
v -15 0 0
v -16 -1 0
v -17 -1 0
v -17 0 0
v -16 0 0
v -17 -1 0
v -18 -1 0
v -18 0 0
v -17 0 0
v -15 -2 0
v -16 -2 0
v -16 -1 0
v -15 -1 0
v -16 -2 0
v -17 -2 0
v -17 -1 0
v -16 -1 0
v -4 -3 0
v -5 -3 0
v -5 -2 0
v -4 -2 0
v -5 -3 0
v -6 -3 0
v -6 -2 0
v -5 -2 0
v -6 -3 0
v -7 -3 0
v -7 -2 0
v -6 -2 0
v -10 -3 0
v -11 -3 0
v -11 -2 0
v -10 -2 0
v -13 -3 0
v -14 -3 0
v -14 -2 0
v -13 -2 0
v -4 -4 0
v -5 -4 0
v -5 -3 0
v -4 -3 0
v -5 -4 0
v -6 -4 0
v -6 -3 0
v -5 -3 0
v -6 -4 0
v -7 -4 0
v -7 -3 0
v -6 -3 0
v -7 -4 0
v -8 -4 0
v -8 -3 0
v -7 -3 0
v -4 -5 0
v -5 -5 0
v -5 -4 0
v -4 -4 0
v -5 -5 0
v -6 -5 0
v -6 -4 0
v -5 -4 0
v -6 -5 0
v -7 -5 0
v -7 -4 0
v -6 -4 0
v -7 -5 0
v -8 -5 0
v -8 -4 0
v -7 -4 0
v -15 -5 0
v -16 -5 0
v -16 -4 0
v -15 -4 0
v -12 -7 0
v -13 -7 0
v -13 -6 0
v -12 -6 0
v -17 -10 0
v -18 -10 0
v -18 -9 0
v -17 -9 0
v -5 -11 0
v -6 -11 0
v -6 -10 0
v -5 -10 0
v -6 -11 0
v -7 -11 0
v -7 -10 0
v -6 -10 0
v -9 -12 0
v -10 -12 0
v -10 -11 0
v -9 -11 0
v -12 -13 0
v -13 -13 0
v -13 -12 0
v -12 -12 0
v -5 -15 0
v -6 -15 0
v -6 -14 0
v -5 -14 0
v -11 -16 0
v -12 -16 0
v -12 -15 0
v -11 -15 0
v -12 -16 0
v -13 -16 0
v -13 -15 0
v -12 -15 0
v -9 -17 0
v -10 -17 0
v -10 -16 0
v -9 -16 0
v -10 -17 0
v -11 -17 0
v -11 -16 0
v -10 -16 0
v -7 -18 0
v -8 -18 0
v -8 -17 0
v -7 -17 0
v -10 -20 0
v -11 -20 0
v -11 -19 0
v -10 -19 0
v -12 -20 0
v -13 -20 0
v -13 -19 0
v -12 -19 0
v -9 -21 0
v -10 -21 0
v -10 -20 0
v -9 -20 0
v -5 -22 0
v -6 -22 0
v -6 -21 0
v -5 -21 0
v -6 -25 0
v -7 -25 0
v -7 -24 0
v -6 -24 0
v -12 -25 0
v -13 -25 0
v -13 -24 0
v -12 -24 0
v -14 -25 0
v -15 -25 0
v -15 -24 0
v -14 -24 0
v -13 -26 0
v -14 -26 0
v -14 -25 0
v -13 -25 0
v -14 -26 0
v -15 -26 0
v -15 -25 0
v -14 -25 0

# Texture cooridinates (Count = 49)
vt 0 0.6666666
vt 0.025 0.6666666
vt 0.025 0.6944444
vt 0 0.6944444
vt 0.05 0.6666666
vt 0.05 0.6944444
vt 0.075 0.6666666
vt 0.075 0.6944444
vt 0.25 0.8333333
vt 0.275 0.8333333
vt 0.275 0.8611111
vt 0.25 0.8611111
vt 0.05 0.6388889
vt 0.075 0.6388889
vt 0.275 0.2777778
vt 0.3 0.2777778
vt 0.3 0.3055556
vt 0.275 0.3055556
vt 0.325 0.2777778
vt 0.325 0.3055556
vt 0.35 0.2777778
vt 0.35 0.3055556
vt 0.725 0.9166667
vt 0.75 0.9166667
vt 0.75 0.9444444
vt 0.725 0.9444444
vt 0.1 0.6388889
vt 0.1 0.6666666
vt 0.275 0.25
vt 0.3 0.25
vt 0.325 0.25
vt 0.35 0.25
vt 0.675 0.8888889
vt 0.7 0.8888889
vt 0.7 0.9166667
vt 0.675 0.9166667
vt 0.275 0.2222222
vt 0.3 0.2222222
vt 0.325 0.2222222
vt 0.35 0.2222222
vt 0.025 0.75
vt 0.05 0.75
vt 0.05 0.7777778
vt 0.025 0.7777778
vt 0.1 0.6944444
vt 0.725 0.8888889
vt 0 0.75
vt 0 0.7777778
vt 0.75 0.8888889

# Normal
vn 0 0 -1

# Mesh description
g Bosque_mesh_0002

# Faces
f 1/1/1 2/2/1 3/3/1 4/4/1
f 5/2/1 6/5/1 7/6/1 8/3/1
f 9/2/1 10/5/1 11/6/1 12/3/1
f 13/2/1 14/5/1 15/6/1 16/3/1
f 17/2/1 18/5/1 19/6/1 20/3/1
f 21/2/1 22/5/1 23/6/1 24/3/1
f 25/2/1 26/5/1 27/6/1 28/3/1
f 29/2/1 30/5/1 31/6/1 32/3/1
f 33/2/1 34/5/1 35/6/1 36/3/1
f 37/2/1 38/5/1 39/6/1 40/3/1
f 41/2/1 42/5/1 43/6/1 44/3/1
f 45/2/1 46/5/1 47/6/1 48/3/1
f 49/2/1 50/5/1 51/6/1 52/3/1
f 53/2/1 54/5/1 55/6/1 56/3/1
f 57/5/1 58/7/1 59/8/1 60/6/1
f 61/9/1 62/10/1 63/11/1 64/12/1
f 65/13/1 66/14/1 67/7/1 68/5/1
f 69/15/1 70/16/1 71/17/1 72/18/1
f 73/16/1 74/19/1 75/20/1 76/17/1
f 77/19/1 78/21/1 79/22/1 80/20/1
f 81/23/1 82/24/1 83/25/1 84/26/1
f 85/14/1 86/27/1 87/28/1 88/7/1
f 89/29/1 90/30/1 91/16/1 92/15/1
f 93/30/1 94/31/1 95/19/1 96/16/1
f 97/31/1 98/32/1 99/21/1 100/19/1
f 101/33/1 102/34/1 103/35/1 104/36/1
f 105/37/1 106/38/1 107/30/1 108/29/1
f 109/38/1 110/39/1 111/31/1 112/30/1
f 113/39/1 114/40/1 115/32/1 116/31/1
f 117/41/1 118/42/1 119/43/1 120/44/1
f 121/7/1 122/28/1 123/45/1 124/8/1
f 125/34/1 126/46/1 127/23/1 128/35/1
f 129/13/1 130/14/1 131/7/1 132/5/1
f 133/47/1 134/41/1 135/44/1 136/48/1
f 137/41/1 138/42/1 139/43/1 140/44/1
f 141/23/1 142/24/1 143/25/1 144/26/1
f 145/14/1 146/27/1 147/28/1 148/7/1
f 149/7/1 150/28/1 151/45/1 152/8/1
f 153/46/1 154/49/1 155/24/1 156/23/1
f 157/13/1 158/14/1 159/7/1 160/5/1
f 161/47/1 162/41/1 163/44/1 164/48/1
f 165/41/1 166/42/1 167/43/1 168/44/1
f 169/13/1 170/14/1 171/7/1 172/5/1
f 173/7/1 174/28/1 175/45/1 176/8/1
f 177/34/1 178/46/1 179/23/1 180/35/1
f 181/13/1 182/14/1 183/7/1 184/5/1
f 185/13/1 186/14/1 187/7/1 188/5/1
f 189/14/1 190/27/1 191/28/1 192/7/1
f 193/13/1 194/14/1 195/7/1 196/5/1
f 197/7/1 198/28/1 199/45/1 200/8/1
f 201/13/1 202/14/1 203/7/1 204/5/1
f 205/14/1 206/27/1 207/28/1 208/7/1

