# Tiled2Unity generated file. Do not modify by hand.
# Wavefront file for 'Bosque_mesh_0003.obj'

# Vertices (Count = 624)
v 0 -1 0
v -1 -1 0
v -1 0 0
v 0 0 0
v -1 -1 0
v -2 -1 0
v -2 0 0
v -1 0 0
v -2 -1 0
v -3 -1 0
v -3 0 0
v -2 0 0
v 0 -2 0
v -1 -2 0
v -1 -1 0
v 0 -1 0
v -1 -2 0
v -2 -2 0
v -2 -1 0
v -1 -1 0
v -2 -2 0
v -3 -2 0
v -3 -1 0
v -2 -1 0
v 0 -3 0
v -1 -3 0
v -1 -2 0
v 0 -2 0
v -1 -3 0
v -2 -3 0
v -2 -2 0
v -1 -2 0
v -2 -3 0
v -3 -3 0
v -3 -2 0
v -2 -2 0
v -16 -3 0
v -17 -3 0
v -17 -2 0
v -16 -2 0
v -17 -3 0
v -18 -3 0
v -18 -2 0
v -17 -2 0
v 0 -4 0
v -1 -4 0
v -1 -3 0
v 0 -3 0
v -1 -4 0
v -2 -4 0
v -2 -3 0
v -1 -3 0
v -2 -4 0
v -3 -4 0
v -3 -3 0
v -2 -3 0
v -16 -4 0
v -17 -4 0
v -17 -3 0
v -16 -3 0
v -17 -4 0
v -18 -4 0
v -18 -3 0
v -17 -3 0
v 0 -5 0
v -1 -5 0
v -1 -4 0
v 0 -4 0
v -1 -5 0
v -2 -5 0
v -2 -4 0
v -1 -4 0
v -2 -5 0
v -3 -5 0
v -3 -4 0
v -2 -4 0
v 0 -6 0
v -1 -6 0
v -1 -5 0
v 0 -5 0
v -1 -6 0
v -2 -6 0
v -2 -5 0
v -1 -5 0
v -2 -6 0
v -3 -6 0
v -3 -5 0
v -2 -5 0
v 0 -7 0
v -1 -7 0
v -1 -6 0
v 0 -6 0
v -1 -7 0
v -2 -7 0
v -2 -6 0
v -1 -6 0
v -2 -7 0
v -3 -7 0
v -3 -6 0
v -2 -6 0
v -3 -7 0
v -4 -7 0
v -4 -6 0
v -3 -6 0
v -4 -7 0
v -5 -7 0
v -5 -6 0
v -4 -6 0
v -5 -7 0
v -6 -7 0
v -6 -6 0
v -5 -6 0
v -6 -7 0
v -7 -7 0
v -7 -6 0
v -6 -6 0
v -7 -7 0
v -8 -7 0
v -8 -6 0
v -7 -6 0
v -8 -7 0
v -9 -7 0
v -9 -6 0
v -8 -6 0
v -14 -7 0
v -15 -7 0
v -15 -6 0
v -14 -6 0
v -15 -7 0
v -16 -7 0
v -16 -6 0
v -15 -6 0
v -16 -7 0
v -17 -7 0
v -17 -6 0
v -16 -6 0
v -17 -7 0
v -18 -7 0
v -18 -6 0
v -17 -6 0
v 0 -8 0
v -1 -8 0
v -1 -7 0
v 0 -7 0
v -1 -8 0
v -2 -8 0
v -2 -7 0
v -1 -7 0
v -2 -8 0
v -3 -8 0
v -3 -7 0
v -2 -7 0
v -3 -8 0
v -4 -8 0
v -4 -7 0
v -3 -7 0
v -4 -8 0
v -5 -8 0
v -5 -7 0
v -4 -7 0
v -5 -8 0
v -6 -8 0
v -6 -7 0
v -5 -7 0
v -6 -8 0
v -7 -8 0
v -7 -7 0
v -6 -7 0
v -7 -8 0
v -8 -8 0
v -8 -7 0
v -7 -7 0
v -8 -8 0
v -9 -8 0
v -9 -7 0
v -8 -7 0
v -9 -8 0
v -10 -8 0
v -10 -7 0
v -9 -7 0
v -14 -8 0
v -15 -8 0
v -15 -7 0
v -14 -7 0
v -15 -8 0
v -16 -8 0
v -16 -7 0
v -15 -7 0
v -16 -8 0
v -17 -8 0
v -17 -7 0
v -16 -7 0
v -17 -8 0
v -18 -8 0
v -18 -7 0
v -17 -7 0
v -18 -8 0
v -19 -8 0
v -19 -7 0
v -18 -7 0
v 0 -9 0
v -1 -9 0
v -1 -8 0
v 0 -8 0
v -1 -9 0
v -2 -9 0
v -2 -8 0
v -1 -8 0
v -2 -9 0
v -3 -9 0
v -3 -8 0
v -2 -8 0
v -3 -9 0
v -4 -9 0
v -4 -8 0
v -3 -8 0
v -4 -9 0
v -5 -9 0
v -5 -8 0
v -4 -8 0
v -5 -9 0
v -6 -9 0
v -6 -8 0
v -5 -8 0
v -6 -9 0
v -7 -9 0
v -7 -8 0
v -6 -8 0
v -7 -9 0
v -8 -9 0
v -8 -8 0
v -7 -8 0
v -8 -9 0
v -9 -9 0
v -9 -8 0
v -8 -8 0
v -9 -9 0
v -10 -9 0
v -10 -8 0
v -9 -8 0
v -14 -9 0
v -15 -9 0
v -15 -8 0
v -14 -8 0
v -15 -9 0
v -16 -9 0
v -16 -8 0
v -15 -8 0
v -16 -9 0
v -17 -9 0
v -17 -8 0
v -16 -8 0
v -17 -9 0
v -18 -9 0
v -18 -8 0
v -17 -8 0
v -18 -9 0
v -19 -9 0
v -19 -8 0
v -18 -8 0
v 0 -10 0
v -1 -10 0
v -1 -9 0
v 0 -9 0
v -1 -10 0
v -2 -10 0
v -2 -9 0
v -1 -9 0
v -3 -10 0
v -4 -10 0
v -4 -9 0
v -3 -9 0
v -4 -10 0
v -5 -10 0
v -5 -9 0
v -4 -9 0
v -5 -10 0
v -6 -10 0
v -6 -9 0
v -5 -9 0
v -6 -10 0
v -7 -10 0
v -7 -9 0
v -6 -9 0
v -7 -10 0
v -8 -10 0
v -8 -9 0
v -7 -9 0
v -8 -10 0
v -9 -10 0
v -9 -9 0
v -8 -9 0
v -9 -10 0
v -10 -10 0
v -10 -9 0
v -9 -9 0
v -14 -10 0
v -15 -10 0
v -15 -9 0
v -14 -9 0
v -15 -10 0
v -16 -10 0
v -16 -9 0
v -15 -9 0
v -16 -10 0
v -17 -10 0
v -17 -9 0
v -16 -9 0
v -17 -10 0
v -18 -10 0
v -18 -9 0
v -17 -9 0
v 0 -11 0
v -1 -11 0
v -1 -10 0
v 0 -10 0
v -1 -11 0
v -2 -11 0
v -2 -10 0
v -1 -10 0
v -2 -11 0
v -3 -11 0
v -3 -10 0
v -2 -10 0
v 0 -12 0
v -1 -12 0
v -1 -11 0
v 0 -11 0
v -1 -12 0
v -2 -12 0
v -2 -11 0
v -1 -11 0
v -2 -12 0
v -3 -12 0
v -3 -11 0
v -2 -11 0
v 0 -13 0
v -1 -13 0
v -1 -12 0
v 0 -12 0
v -1 -13 0
v -2 -13 0
v -2 -12 0
v -1 -12 0
v -2 -13 0
v -3 -13 0
v -3 -12 0
v -2 -12 0
v 0 -14 0
v -1 -14 0
v -1 -13 0
v 0 -13 0
v -1 -14 0
v -2 -14 0
v -2 -13 0
v -1 -13 0
v -2 -14 0
v -3 -14 0
v -3 -13 0
v -2 -13 0
v 0 -15 0
v -1 -15 0
v -1 -14 0
v 0 -14 0
v -1 -15 0
v -2 -15 0
v -2 -14 0
v -1 -14 0
v -2 -15 0
v -3 -15 0
v -3 -14 0
v -2 -14 0
v 0 -16 0
v -1 -16 0
v -1 -15 0
v 0 -15 0
v -1 -16 0
v -2 -16 0
v -2 -15 0
v -1 -15 0
v -5 -16 0
v -6 -16 0
v -6 -15 0
v -5 -15 0
v -6 -16 0
v -7 -16 0
v -7 -15 0
v -6 -15 0
v 0 -17 0
v -1 -17 0
v -1 -16 0
v 0 -16 0
v -1 -17 0
v -2 -17 0
v -2 -16 0
v -1 -16 0
v -2 -17 0
v -3 -17 0
v -3 -16 0
v -2 -16 0
v -5 -17 0
v -6 -17 0
v -6 -16 0
v -5 -16 0
v -6 -17 0
v -7 -17 0
v -7 -16 0
v -6 -16 0
v 0 -18 0
v -1 -18 0
v -1 -17 0
v 0 -17 0
v -1 -18 0
v -2 -18 0
v -2 -17 0
v -1 -17 0
v -2 -18 0
v -3 -18 0
v -3 -17 0
v -2 -17 0
v 0 -19 0
v -1 -19 0
v -1 -18 0
v 0 -18 0
v -1 -19 0
v -2 -19 0
v -2 -18 0
v -1 -18 0
v -2 -19 0
v -3 -19 0
v -3 -18 0
v -2 -18 0
v 0 -20 0
v -1 -20 0
v -1 -19 0
v 0 -19 0
v -1 -20 0
v -2 -20 0
v -2 -19 0
v -1 -19 0
v -2 -20 0
v -3 -20 0
v -3 -19 0
v -2 -19 0
v 0 -21 0
v -1 -21 0
v -1 -20 0
v 0 -20 0
v -1 -21 0
v -2 -21 0
v -2 -20 0
v -1 -20 0
v -2 -21 0
v -3 -21 0
v -3 -20 0
v -2 -20 0
v 0 -22 0
v -1 -22 0
v -1 -21 0
v 0 -21 0
v -1 -22 0
v -2 -22 0
v -2 -21 0
v -1 -21 0
v 0 -23 0
v -1 -23 0
v -1 -22 0
v 0 -22 0
v -1 -23 0
v -2 -23 0
v -2 -22 0
v -1 -22 0
v -2 -23 0
v -3 -23 0
v -3 -22 0
v -2 -22 0
v -3 -23 0
v -4 -23 0
v -4 -22 0
v -3 -22 0
v 0 -24 0
v -1 -24 0
v -1 -23 0
v 0 -23 0
v -1 -24 0
v -2 -24 0
v -2 -23 0
v -1 -23 0
v -2 -24 0
v -3 -24 0
v -3 -23 0
v -2 -23 0
v -3 -24 0
v -4 -24 0
v -4 -23 0
v -3 -23 0
v 0 -25 0
v -1 -25 0
v -1 -24 0
v 0 -24 0
v -1 -25 0
v -2 -25 0
v -2 -24 0
v -1 -24 0
v -2 -25 0
v -3 -25 0
v -3 -24 0
v -2 -24 0
v -3 -25 0
v -4 -25 0
v -4 -24 0
v -3 -24 0
v 0 -26 0
v -1 -26 0
v -1 -25 0
v 0 -25 0
v -1 -26 0
v -2 -26 0
v -2 -25 0
v -1 -25 0
v -2 -26 0
v -3 -26 0
v -3 -25 0
v -2 -25 0
v -3 -26 0
v -4 -26 0
v -4 -25 0
v -3 -25 0
v 0 -27 0
v -1 -27 0
v -1 -26 0
v 0 -26 0
v -1 -27 0
v -2 -27 0
v -2 -26 0
v -1 -26 0
v -2 -27 0
v -3 -27 0
v -3 -26 0
v -2 -26 0
v -3 -27 0
v -4 -27 0
v -4 -26 0
v -3 -26 0
v -4 -27 0
v -5 -27 0
v -5 -26 0
v -4 -26 0
v -5 -27 0
v -6 -27 0
v -6 -26 0
v -5 -26 0
v -6 -27 0
v -7 -27 0
v -7 -26 0
v -6 -26 0
v 0 -28 0
v -1 -28 0
v -1 -27 0
v 0 -27 0
v -1 -28 0
v -2 -28 0
v -2 -27 0
v -1 -27 0
v -2 -28 0
v -3 -28 0
v -3 -27 0
v -2 -27 0
v -3 -28 0
v -4 -28 0
v -4 -27 0
v -3 -27 0
v -4 -28 0
v -5 -28 0
v -5 -27 0
v -4 -27 0
v -5 -28 0
v -6 -28 0
v -6 -27 0
v -5 -27 0
v -6 -28 0
v -7 -28 0
v -7 -27 0
v -6 -27 0
v 0 -29 0
v -1 -29 0
v -1 -28 0
v 0 -28 0
v -1 -29 0
v -2 -29 0
v -2 -28 0
v -1 -28 0
v -2 -29 0
v -3 -29 0
v -3 -28 0
v -2 -28 0
v -3 -29 0
v -4 -29 0
v -4 -28 0
v -3 -28 0
v -4 -29 0
v -5 -29 0
v -5 -28 0
v -4 -28 0
v -5 -29 0
v -6 -29 0
v -6 -28 0
v -5 -28 0
v -6 -29 0
v -7 -29 0
v -7 -28 0
v -6 -28 0
v 0 -30 0
v -1 -30 0
v -1 -29 0
v 0 -29 0
v -1 -30 0
v -2 -30 0
v -2 -29 0
v -1 -29 0
v -2 -30 0
v -3 -30 0
v -3 -29 0
v -2 -29 0

# Texture cooridinates (Count = 42)
vt 0.125 0.5277778
vt 0.15 0.5277778
vt 0.15 0.5555556
vt 0.125 0.5555556
vt 0.175 0.4722222
vt 0.175 0.5
vt 0.15 0.5
vt 0.15 0.4722222
vt 0.175 0.5277778
vt 0.175 0.5555556
vt 0.05 0.5277778
vt 0.075 0.5277778
vt 0.075 0.5555556
vt 0.05 0.5555556
vt 0.2 0.4722222
vt 0.2 0.5
vt 0.125 0.5
vt 0.125 0.4722222
vt 0.1 0.6388889
vt 0.125 0.6388889
vt 0.125 0.6666666
vt 0.1 0.6666666
vt 0.15 0.6388889
vt 0.15 0.6666666
vt 0.175 0.6388889
vt 0.175 0.6666666
vt 0.1 0.6111111
vt 0.125 0.6111111
vt 0.15 0.6111111
vt 0.175 0.6111111
vt 0.2 0.6111111
vt 0.2 0.6388889
vt 0.1 0.5555556
vt 0.1 0.5277778
vt 0.1 0.5833334
vt 0.125 0.5833334
vt 0.15 0.5833334
vt 0.175 0.5833334
vt 0.2 0.5833334
vt 0.2 0.5555556
vt 0.125 0.4444444
vt 0.15 0.4444444

# Normal
vn 0 0 -1

# Mesh description
g Bosque_mesh_0003

# Faces
f 1/1/1 2/2/1 3/3/1 4/4/1
f 5/5/1 6/6/1 7/7/1 8/8/1
f 9/2/1 10/9/1 11/10/1 12/3/1
f 13/8/1 14/5/1 15/6/1 16/7/1
f 17/11/1 18/12/1 19/13/1 20/14/1
f 21/5/1 22/15/1 23/16/1 24/6/1
f 25/17/1 26/18/1 27/8/1 28/7/1
f 29/11/1 30/12/1 31/13/1 32/14/1
f 33/5/1 34/15/1 35/16/1 36/6/1
f 37/1/1 38/2/1 39/3/1 40/4/1
f 41/2/1 42/9/1 43/10/1 44/3/1
f 45/8/1 46/5/1 47/6/1 48/7/1
f 49/11/1 50/12/1 51/13/1 52/14/1
f 53/5/1 54/15/1 55/16/1 56/6/1
f 57/17/1 58/7/1 59/2/1 60/1/1
f 61/7/1 62/6/1 63/9/1 64/2/1
f 65/17/1 66/18/1 67/8/1 68/7/1
f 69/11/1 70/12/1 71/13/1 72/14/1
f 73/5/1 74/15/1 75/16/1 76/6/1
f 77/8/1 78/5/1 79/6/1 80/7/1
f 81/11/1 82/12/1 83/13/1 84/14/1
f 85/5/1 86/15/1 87/16/1 88/6/1
f 89/17/1 90/18/1 91/8/1 92/7/1
f 93/11/1 94/12/1 95/13/1 96/14/1
f 97/5/1 98/15/1 99/16/1 100/6/1
f 101/19/1 102/20/1 103/21/1 104/22/1
f 105/20/1 106/23/1 107/24/1 108/21/1
f 109/20/1 110/23/1 111/24/1 112/21/1
f 113/20/1 114/23/1 115/24/1 116/21/1
f 117/20/1 118/23/1 119/24/1 120/21/1
f 121/23/1 122/25/1 123/26/1 124/24/1
f 125/19/1 126/20/1 127/21/1 128/22/1
f 129/20/1 130/23/1 131/24/1 132/21/1
f 133/20/1 134/23/1 135/24/1 136/21/1
f 137/23/1 138/25/1 139/26/1 140/24/1
f 141/8/1 142/5/1 143/6/1 144/7/1
f 145/11/1 146/12/1 147/13/1 148/14/1
f 149/5/1 150/15/1 151/16/1 152/6/1
f 153/27/1 154/28/1 155/20/1 156/19/1
f 157/28/1 158/29/1 159/23/1 160/20/1
f 161/28/1 162/29/1 163/23/1 164/20/1
f 165/28/1 166/29/1 167/23/1 168/20/1
f 169/28/1 170/29/1 171/23/1 172/20/1
f 173/29/1 174/30/1 175/25/1 176/23/1
f 177/30/1 178/31/1 179/32/1 180/25/1
f 181/27/1 182/28/1 183/20/1 184/19/1
f 185/28/1 186/29/1 187/23/1 188/20/1
f 189/28/1 190/29/1 191/23/1 192/20/1
f 193/29/1 194/30/1 195/25/1 196/23/1
f 197/30/1 198/31/1 199/32/1 200/25/1
f 201/17/1 202/18/1 203/8/1 204/7/1
f 205/1/1 206/4/1 207/33/1 208/34/1
f 209/7/1 210/6/1 211/9/1 212/2/1
f 213/35/1 214/36/1 215/28/1 216/27/1
f 217/36/1 218/37/1 219/29/1 220/28/1
f 221/36/1 222/37/1 223/29/1 224/28/1
f 225/36/1 226/37/1 227/29/1 228/28/1
f 229/36/1 230/37/1 231/29/1 232/28/1
f 233/37/1 234/38/1 235/30/1 236/29/1
f 237/38/1 238/39/1 239/31/1 240/30/1
f 241/35/1 242/36/1 243/28/1 244/27/1
f 245/36/1 246/37/1 247/29/1 248/28/1
f 249/36/1 250/37/1 251/29/1 252/28/1
f 253/37/1 254/38/1 255/30/1 256/29/1
f 257/38/1 258/39/1 259/31/1 260/30/1
f 261/17/1 262/18/1 263/8/1 264/7/1
f 265/5/1 266/15/1 267/16/1 268/6/1
f 269/33/1 270/4/1 271/36/1 272/35/1
f 273/4/1 274/3/1 275/37/1 276/36/1
f 277/4/1 278/3/1 279/37/1 280/36/1
f 281/3/1 282/10/1 283/38/1 284/37/1
f 285/4/1 286/3/1 287/37/1 288/36/1
f 289/3/1 290/10/1 291/38/1 292/37/1
f 293/10/1 294/40/1 295/39/1 296/38/1
f 297/33/1 298/4/1 299/36/1 300/35/1
f 301/4/1 302/3/1 303/37/1 304/36/1
f 305/3/1 306/10/1 307/38/1 308/37/1
f 309/3/1 310/10/1 311/38/1 312/37/1
f 313/17/1 314/18/1 315/8/1 316/7/1
f 317/11/1 318/12/1 319/13/1 320/14/1
f 321/2/1 322/9/1 323/10/1 324/3/1
f 325/8/1 326/5/1 327/6/1 328/7/1
f 329/11/1 330/12/1 331/13/1 332/14/1
f 333/5/1 334/15/1 335/16/1 336/6/1
f 337/8/1 338/5/1 339/6/1 340/7/1
f 341/11/1 342/12/1 343/13/1 344/14/1
f 345/5/1 346/15/1 347/16/1 348/6/1
f 349/8/1 350/5/1 351/6/1 352/7/1
f 353/11/1 354/12/1 355/13/1 356/14/1
f 357/5/1 358/15/1 359/16/1 360/6/1
f 361/8/1 362/5/1 363/6/1 364/7/1
f 365/1/1 366/4/1 367/33/1 368/34/1
f 369/7/1 370/6/1 371/9/1 372/2/1
f 373/8/1 374/5/1 375/6/1 376/7/1
f 377/5/1 378/15/1 379/16/1 380/6/1
f 381/1/1 382/2/1 383/3/1 384/4/1
f 385/2/1 386/9/1 387/10/1 388/3/1
f 389/8/1 390/5/1 391/6/1 392/7/1
f 393/11/1 394/12/1 395/13/1 396/14/1
f 397/2/1 398/9/1 399/10/1 400/3/1
f 401/17/1 402/7/1 403/2/1 404/1/1
f 405/7/1 406/6/1 407/9/1 408/2/1
f 409/8/1 410/5/1 411/6/1 412/7/1
f 413/11/1 414/12/1 415/13/1 416/14/1
f 417/5/1 418/15/1 419/16/1 420/6/1
f 421/8/1 422/5/1 423/6/1 424/7/1
f 425/11/1 426/12/1 427/13/1 428/14/1
f 429/5/1 430/15/1 431/16/1 432/6/1
f 433/12/1 434/34/1 435/33/1 436/13/1
f 437/11/1 438/12/1 439/13/1 440/14/1
f 441/5/1 442/15/1 443/16/1 444/6/1
f 445/11/1 446/12/1 447/13/1 448/14/1
f 449/1/1 450/4/1 451/33/1 452/34/1
f 453/7/1 454/6/1 455/9/1 456/2/1
f 457/11/1 458/12/1 459/13/1 460/14/1
f 461/5/1 462/15/1 463/16/1 464/6/1
f 465/11/1 466/12/1 467/13/1 468/14/1
f 469/34/1 470/1/1 471/4/1 472/33/1
f 473/18/1 474/8/1 475/7/1 476/17/1
f 477/2/1 478/9/1 479/10/1 480/3/1
f 481/11/1 482/12/1 483/13/1 484/14/1
f 485/11/1 486/12/1 487/13/1 488/14/1
f 489/11/1 490/12/1 491/13/1 492/14/1
f 493/5/1 494/15/1 495/16/1 496/6/1
f 497/11/1 498/12/1 499/13/1 500/14/1
f 501/11/1 502/12/1 503/13/1 504/14/1
f 505/11/1 506/12/1 507/13/1 508/14/1
f 509/5/1 510/15/1 511/16/1 512/6/1
f 513/11/1 514/12/1 515/13/1 516/14/1
f 517/11/1 518/12/1 519/13/1 520/14/1
f 521/11/1 522/12/1 523/13/1 524/14/1
f 525/5/1 526/15/1 527/16/1 528/6/1
f 529/13/1 530/12/1 531/34/1 532/33/1
f 533/11/1 534/12/1 535/13/1 536/14/1
f 537/11/1 538/12/1 539/13/1 540/14/1
f 541/34/1 542/1/1 543/4/1 544/33/1
f 545/18/1 546/8/1 547/7/1 548/17/1
f 549/18/1 550/8/1 551/7/1 552/17/1
f 553/2/1 554/9/1 555/10/1 556/3/1
f 557/8/1 558/5/1 559/6/1 560/7/1
f 561/11/1 562/12/1 563/13/1 564/14/1
f 565/11/1 566/12/1 567/13/1 568/14/1
f 569/11/1 570/12/1 571/13/1 572/14/1
f 573/11/1 574/12/1 575/13/1 576/14/1
f 577/11/1 578/12/1 579/13/1 580/14/1
f 581/5/1 582/15/1 583/16/1 584/6/1
f 585/8/1 586/5/1 587/6/1 588/7/1
f 589/11/1 590/12/1 591/13/1 592/14/1
f 593/33/1 594/13/1 595/12/1 596/34/1
f 597/41/1 598/42/1 599/8/1 600/18/1
f 601/41/1 602/42/1 603/8/1 604/18/1
f 605/41/1 606/42/1 607/8/1 608/18/1
f 609/7/1 610/6/1 611/9/1 612/2/1
f 613/17/1 614/7/1 615/2/1 616/1/1
f 617/41/1 618/42/1 619/8/1 620/18/1
f 621/7/1 622/6/1 623/9/1 624/2/1

