# Tiled2Unity generated file. Do not modify by hand.
# Wavefront file for 'Cueva_mesh_0005.obj'

# Vertices (Count = 100)
v -8 -5 0
v -9 -5 0
v -9 -4 0
v -8 -4 0
v -9 -5 0
v -10 -5 0
v -10 -4 0
v -9 -4 0
v -10 -5 0
v -11 -5 0
v -11 -4 0
v -10 -4 0
v -11 -5 0
v -12 -5 0
v -12 -4 0
v -11 -4 0
v -9 -6 0
v -10 -6 0
v -10 -5 0
v -9 -5 0
v -10 -6 0
v -11 -6 0
v -11 -5 0
v -10 -5 0
v -11 -6 0
v -12 -6 0
v -12 -5 0
v -11 -5 0
v -10 -8 0
v -11 -8 0
v -11 -7 0
v -10 -7 0
v -15 -8 0
v -16 -8 0
v -16 -7 0
v -15 -7 0
v -7 -10 0
v -8 -10 0
v -8 -9 0
v -7 -9 0
v -11 -11 0
v -12 -11 0
v -12 -10 0
v -11 -10 0
v -17 -12 0
v -18 -12 0
v -18 -11 0
v -17 -11 0
v -12 -13 0
v -13 -13 0
v -13 -12 0
v -12 -12 0
v -13 -13 0
v -14 -13 0
v -14 -12 0
v -13 -12 0
v -12 -14 0
v -13 -14 0
v -13 -13 0
v -12 -13 0
v -13 -14 0
v -14 -14 0
v -14 -13 0
v -13 -13 0
v -16 -15 0
v -17 -15 0
v -17 -14 0
v -16 -14 0
v -4 -16 0
v -5 -16 0
v -5 -15 0
v -4 -15 0
v -14 -17 0
v -15 -17 0
v -15 -16 0
v -14 -16 0
v -5 -18 0
v -6 -18 0
v -6 -17 0
v -5 -17 0
v -9 -18 0
v -10 -18 0
v -10 -17 0
v -9 -17 0
v -10 -18 0
v -11 -18 0
v -11 -17 0
v -10 -17 0
v -16 -18 0
v -17 -18 0
v -17 -17 0
v -16 -17 0
v -1 -19 0
v -2 -19 0
v -2 -18 0
v -1 -18 0
v -5 -19 0
v -6 -19 0
v -6 -18 0
v -5 -18 0

# Texture cooridinates (Count = 34)
vt 0.125 0.84
vt 0.15 0.84
vt 0.15 0.88
vt 0.125 0.88
vt 0.175 0.76
vt 0.2 0.76
vt 0.2 0.8
vt 0.175 0.8
vt 0.15 0.76
vt 0.15 0.8
vt 0.225 0.76
vt 0.225 0.8
vt 0.175 0.72
vt 0.2 0.72
vt 0.15 0.72
vt 0.225 0.72
vt 0.175 0.84
vt 0.175 0.88
vt 0.125 0.76
vt 0.125 0.8
vt 0.2 0.6
vt 0.225 0.6
vt 0.225 0.64
vt 0.2 0.64
vt 0.225 0.68
vt 0.25 0.68
vt 0.25 0.72
vt 0.275 0.68
vt 0.275 0.72
vt 0.25 0.64
vt 0.275 0.64
vt 0.25 0.6
vt 0.275 0.6
vt 0.125 0.72

# Normal
vn 0 0 -1

# Mesh description
g Cueva_mesh_0005

# Faces
f 1/1/1 2/2/1 3/3/1 4/4/1
f 5/5/1 6/6/1 7/7/1 8/8/1
f 9/9/1 10/5/1 11/8/1 12/10/1
f 13/6/1 14/11/1 15/12/1 16/7/1
f 17/13/1 18/14/1 19/6/1 20/5/1
f 21/15/1 22/13/1 23/5/1 24/9/1
f 25/14/1 26/16/1 27/11/1 28/6/1
f 29/2/1 30/17/1 31/18/1 32/3/1
f 33/10/1 34/8/1 35/17/1 36/2/1
f 37/10/1 38/8/1 39/17/1 40/2/1
f 41/19/1 42/9/1 43/10/1 44/20/1
f 45/21/1 46/22/1 47/23/1 48/24/1
f 49/25/1 50/26/1 51/27/1 52/16/1
f 53/26/1 54/28/1 55/29/1 56/27/1
f 57/23/1 58/30/1 59/26/1 60/25/1
f 61/30/1 62/31/1 63/28/1 64/26/1
f 65/32/1 66/33/1 67/31/1 68/30/1
f 69/19/1 70/9/1 71/10/1 72/20/1
f 73/10/1 74/8/1 75/17/1 76/2/1
f 77/34/1 78/15/1 79/9/1 80/19/1
f 81/20/1 82/10/1 83/2/1 84/1/1
f 85/34/1 86/15/1 87/9/1 88/19/1
f 89/1/1 90/2/1 91/3/1 92/4/1
f 93/10/1 94/8/1 95/17/1 96/2/1
f 97/1/1 98/2/1 99/3/1 100/4/1

