# Tiled2Unity generated file. Do not modify by hand.
# Wavefront file for 'Cueva_mesh_0004.obj'

# Vertices (Count = 208)
v -12 -11 0
v -13 -11 0
v -13 -10 0
v -12 -10 0
v -13 -11 0
v -14 -11 0
v -14 -10 0
v -13 -10 0
v -14 -11 0
v -15 -11 0
v -15 -10 0
v -14 -10 0
v -15 -11 0
v -16 -11 0
v -16 -10 0
v -15 -10 0
v -16 -11 0
v -17 -11 0
v -17 -10 0
v -16 -10 0
v -17 -11 0
v -18 -11 0
v -18 -10 0
v -17 -10 0
v -18 -11 0
v -19 -11 0
v -19 -10 0
v -18 -10 0
v -10 -12 0
v -11 -12 0
v -11 -11 0
v -10 -11 0
v -11 -12 0
v -12 -12 0
v -12 -11 0
v -11 -11 0
v -12 -12 0
v -13 -12 0
v -13 -11 0
v -12 -11 0
v -13 -12 0
v -14 -12 0
v -14 -11 0
v -13 -11 0
v -14 -12 0
v -15 -12 0
v -15 -11 0
v -14 -11 0
v -15 -12 0
v -16 -12 0
v -16 -11 0
v -15 -11 0
v -16 -12 0
v -17 -12 0
v -17 -11 0
v -16 -11 0
v -17 -12 0
v -18 -12 0
v -18 -11 0
v -17 -11 0
v -18 -12 0
v -19 -12 0
v -19 -11 0
v -18 -11 0
v -10 -13 0
v -11 -13 0
v -11 -12 0
v -10 -12 0
v -11 -13 0
v -12 -13 0
v -12 -12 0
v -11 -12 0
v -12 -13 0
v -13 -13 0
v -13 -12 0
v -12 -12 0
v -13 -13 0
v -14 -13 0
v -14 -12 0
v -13 -12 0
v -14 -13 0
v -15 -13 0
v -15 -12 0
v -14 -12 0
v -15 -13 0
v -16 -13 0
v -16 -12 0
v -15 -12 0
v -16 -13 0
v -17 -13 0
v -17 -12 0
v -16 -12 0
v -17 -13 0
v -18 -13 0
v -18 -12 0
v -17 -12 0
v -18 -13 0
v -19 -13 0
v -19 -12 0
v -18 -12 0
v -10 -14 0
v -11 -14 0
v -11 -13 0
v -10 -13 0
v -11 -14 0
v -12 -14 0
v -12 -13 0
v -11 -13 0
v -12 -14 0
v -13 -14 0
v -13 -13 0
v -12 -13 0
v -13 -14 0
v -14 -14 0
v -14 -13 0
v -13 -13 0
v -14 -14 0
v -15 -14 0
v -15 -13 0
v -14 -13 0
v -15 -14 0
v -16 -14 0
v -16 -13 0
v -15 -13 0
v -16 -14 0
v -17 -14 0
v -17 -13 0
v -16 -13 0
v -17 -14 0
v -18 -14 0
v -18 -13 0
v -17 -13 0
v -18 -14 0
v -19 -14 0
v -19 -13 0
v -18 -13 0
v -10 -15 0
v -11 -15 0
v -11 -14 0
v -10 -14 0
v -11 -15 0
v -12 -15 0
v -12 -14 0
v -11 -14 0
v -12 -15 0
v -13 -15 0
v -13 -14 0
v -12 -14 0
v -13 -15 0
v -14 -15 0
v -14 -14 0
v -13 -14 0
v -14 -15 0
v -15 -15 0
v -15 -14 0
v -14 -14 0
v -15 -15 0
v -16 -15 0
v -16 -14 0
v -15 -14 0
v -16 -15 0
v -17 -15 0
v -17 -14 0
v -16 -14 0
v -17 -15 0
v -18 -15 0
v -18 -14 0
v -17 -14 0
v -18 -15 0
v -19 -15 0
v -19 -14 0
v -18 -14 0
v -10 -16 0
v -11 -16 0
v -11 -15 0
v -10 -15 0
v -11 -16 0
v -12 -16 0
v -12 -15 0
v -11 -15 0
v -12 -16 0
v -13 -16 0
v -13 -15 0
v -12 -15 0
v -13 -16 0
v -14 -16 0
v -14 -15 0
v -13 -15 0
v -14 -16 0
v -15 -16 0
v -15 -15 0
v -14 -15 0
v -15 -16 0
v -16 -16 0
v -16 -15 0
v -15 -15 0
v -16 -16 0
v -17 -16 0
v -17 -15 0
v -16 -15 0
v -17 -16 0
v -18 -16 0
v -18 -15 0
v -17 -15 0
v -18 -16 0
v -19 -16 0
v -19 -15 0
v -18 -15 0

# Texture cooridinates (Count = 20)
vt 0 0.68
vt 0.025 0.68
vt 0.025 0.72
vt 0 0.72
vt 0.05 0.68
vt 0.05 0.72
vt 0.075 0.68
vt 0.075 0.72
vt 0.1 0.64
vt 0.125 0.64
vt 0.125 0.68
vt 0.1 0.68
vt 0.025 0.64
vt 0.05 0.64
vt 0.075 0.64
vt 0 0.64
vt 0 0.6
vt 0.025 0.6
vt 0.05 0.6
vt 0.075 0.6

# Normal
vn 0 0 -1

# Mesh description
g Cueva_mesh_0004

# Faces
f 1/1/1 2/2/1 3/3/1 4/4/1
f 5/2/1 6/5/1 7/6/1 8/3/1
f 9/2/1 10/5/1 11/6/1 12/3/1
f 13/2/1 14/5/1 15/6/1 16/3/1
f 17/2/1 18/5/1 19/6/1 20/3/1
f 21/2/1 22/5/1 23/6/1 24/3/1
f 25/5/1 26/7/1 27/8/1 28/6/1
f 29/1/1 30/2/1 31/3/1 32/4/1
f 33/2/1 34/5/1 35/6/1 36/3/1
f 37/9/1 38/10/1 39/11/1 40/12/1
f 41/13/1 42/14/1 43/5/1 44/2/1
f 45/13/1 46/14/1 47/5/1 48/2/1
f 49/13/1 50/14/1 51/5/1 52/2/1
f 53/13/1 54/14/1 55/5/1 56/2/1
f 57/13/1 58/14/1 59/5/1 60/2/1
f 61/14/1 62/15/1 63/7/1 64/5/1
f 65/16/1 66/13/1 67/2/1 68/1/1
f 69/13/1 70/14/1 71/5/1 72/2/1
f 73/13/1 74/14/1 75/5/1 76/2/1
f 77/13/1 78/14/1 79/5/1 80/2/1
f 81/13/1 82/14/1 83/5/1 84/2/1
f 85/13/1 86/14/1 87/5/1 88/2/1
f 89/13/1 90/14/1 91/5/1 92/2/1
f 93/13/1 94/14/1 95/5/1 96/2/1
f 97/14/1 98/15/1 99/7/1 100/5/1
f 101/16/1 102/13/1 103/2/1 104/1/1
f 105/13/1 106/14/1 107/5/1 108/2/1
f 109/13/1 110/14/1 111/5/1 112/2/1
f 113/13/1 114/14/1 115/5/1 116/2/1
f 117/13/1 118/14/1 119/5/1 120/2/1
f 121/13/1 122/14/1 123/5/1 124/2/1
f 125/13/1 126/14/1 127/5/1 128/2/1
f 129/13/1 130/14/1 131/5/1 132/2/1
f 133/14/1 134/15/1 135/7/1 136/5/1
f 137/16/1 138/13/1 139/2/1 140/1/1
f 141/13/1 142/14/1 143/5/1 144/2/1
f 145/13/1 146/14/1 147/5/1 148/2/1
f 149/13/1 150/14/1 151/5/1 152/2/1
f 153/13/1 154/14/1 155/5/1 156/2/1
f 157/13/1 158/14/1 159/5/1 160/2/1
f 161/13/1 162/14/1 163/5/1 164/2/1
f 165/13/1 166/14/1 167/5/1 168/2/1
f 169/14/1 170/15/1 171/7/1 172/5/1
f 173/17/1 174/18/1 175/13/1 176/16/1
f 177/18/1 178/19/1 179/14/1 180/13/1
f 181/18/1 182/19/1 183/14/1 184/13/1
f 185/18/1 186/19/1 187/14/1 188/13/1
f 189/18/1 190/19/1 191/14/1 192/13/1
f 193/18/1 194/19/1 195/14/1 196/13/1
f 197/18/1 198/19/1 199/14/1 200/13/1
f 201/18/1 202/19/1 203/14/1 204/13/1
f 205/19/1 206/20/1 207/15/1 208/14/1

