# Tiled2Unity generated file. Do not modify by hand.
# Wavefront file for 'Cueva_mesh_0003.obj'

# Vertices (Count = 20)
v -13 -5 0
v -14 -5 0
v -14 -4 0
v -13 -4 0
v -13 -6 0
v -14 -6 0
v -14 -5 0
v -13 -5 0
v -2 -14 0
v -3 -14 0
v -3 -13 0
v -2 -13 0
v -2 -15 0
v -3 -15 0
v -3 -14 0
v -2 -14 0
v -2 -16 0
v -3 -16 0
v -3 -15 0
v -2 -15 0

# Texture cooridinates (Count = 14)
vt 0 0.76
vt 0.025 0.76
vt 0.025 0.8
vt 0 0.8
vt 0 0.72
vt 0.025 0.72
vt 0.225 0.96
vt 0.25 0.96
vt 0.25 1
vt 0.225 1
vt 0.225 0.92
vt 0.25 0.92
vt 0.225 0.88
vt 0.25 0.88

# Normal
vn 0 0 -1

# Mesh description
g Cueva_mesh_0003

# Faces
f 1/1/1 2/2/1 3/3/1 4/4/1
f 5/5/1 6/6/1 7/2/1 8/1/1
f 9/7/1 10/8/1 11/9/1 12/10/1
f 13/11/1 14/12/1 15/8/1 16/7/1
f 17/13/1 18/14/1 19/12/1 20/11/1

