# Tiled2Unity generated file. Do not modify by hand.
# Wavefront file for 'Casa_mesh_0002.obj'

# Vertices (Count = 176)
v -1 -2 0
v -2 -2 0
v -2 -1 0
v -1 -1 0
v -2 -2 0
v -3 -2 0
v -3 -1 0
v -2 -1 0
v -3 -2 0
v -4 -2 0
v -4 -1 0
v -3 -1 0
v -5 -2 0
v -6 -2 0
v -6 -1 0
v -5 -1 0
v -6 -2 0
v -7 -2 0
v -7 -1 0
v -6 -1 0
v -7 -2 0
v -8 -2 0
v -8 -1 0
v -7 -1 0
v -9 -2 0
v -10 -2 0
v -10 -1 0
v -9 -1 0
v -10 -2 0
v -11 -2 0
v -11 -1 0
v -10 -1 0
v -1 -3 0
v -2 -3 0
v -2 -2 0
v -1 -2 0
v -2 -3 0
v -3 -3 0
v -3 -2 0
v -2 -2 0
v -3 -3 0
v -4 -3 0
v -4 -2 0
v -3 -2 0
v -5 -3 0
v -6 -3 0
v -6 -2 0
v -5 -2 0
v -6 -3 0
v -7 -3 0
v -7 -2 0
v -6 -2 0
v -7 -3 0
v -8 -3 0
v -8 -2 0
v -7 -2 0
v -9 -3 0
v -10 -3 0
v -10 -2 0
v -9 -2 0
v -10 -3 0
v -11 -3 0
v -11 -2 0
v -10 -2 0
v -1 -4 0
v -2 -4 0
v -2 -3 0
v -1 -3 0
v -2 -4 0
v -3 -4 0
v -3 -3 0
v -2 -3 0
v -3 -4 0
v -4 -4 0
v -4 -3 0
v -3 -3 0
v -5 -4 0
v -6 -4 0
v -6 -3 0
v -5 -3 0
v -6 -4 0
v -7 -4 0
v -7 -3 0
v -6 -3 0
v -7 -4 0
v -8 -4 0
v -8 -3 0
v -7 -3 0
v -1 -6 0
v -2 -6 0
v -2 -5 0
v -1 -5 0
v -2 -6 0
v -3 -6 0
v -3 -5 0
v -2 -5 0
v -3 -6 0
v -4 -6 0
v -4 -5 0
v -3 -5 0
v -6 -6 0
v -7 -6 0
v -7 -5 0
v -6 -5 0
v -1 -7 0
v -2 -7 0
v -2 -6 0
v -1 -6 0
v -2 -7 0
v -3 -7 0
v -3 -6 0
v -2 -6 0
v -3 -7 0
v -4 -7 0
v -4 -6 0
v -3 -6 0
v -6 -7 0
v -7 -7 0
v -7 -6 0
v -6 -6 0
v -7 -7 0
v -8 -7 0
v -8 -6 0
v -7 -6 0
v -8 -7 0
v -9 -7 0
v -9 -6 0
v -8 -6 0
v -1 -8 0
v -2 -8 0
v -2 -7 0
v -1 -7 0
v -2 -8 0
v -3 -8 0
v -3 -7 0
v -2 -7 0
v -3 -8 0
v -4 -8 0
v -4 -7 0
v -3 -7 0
v -6 -8 0
v -7 -8 0
v -7 -7 0
v -6 -7 0
v -7 -8 0
v -8 -8 0
v -8 -7 0
v -7 -7 0
v -8 -8 0
v -9 -8 0
v -9 -7 0
v -8 -7 0
v -1 -9 0
v -2 -9 0
v -2 -8 0
v -1 -8 0
v -2 -9 0
v -3 -9 0
v -3 -8 0
v -2 -8 0
v -3 -9 0
v -4 -9 0
v -4 -8 0
v -3 -8 0
v -5 -12 0
v -6 -12 0
v -6 -11 0
v -5 -11 0
v -6 -12 0
v -7 -12 0
v -7 -11 0
v -6 -11 0
v -7 -12 0
v -8 -12 0
v -8 -11 0
v -7 -11 0

# Texture cooridinates (Count = 80)
vt 0.25 0.68
vt 0.275 0.68
vt 0.275 0.72
vt 0.25 0.72
vt 0.3 0.68
vt 0.3 0.72
vt 0.325 0.68
vt 0.325 0.72
vt 0.15 0.6
vt 0.175 0.6
vt 0.175 0.64
vt 0.15 0.64
vt 0.2 0.6
vt 0.2 0.64
vt 0.225 0.6
vt 0.225 0.64
vt 0.05 0.36
vt 0.075 0.36
vt 0.075 0.4
vt 0.05 0.4
vt 0.1 0.36
vt 0.1 0.4
vt 0.25 0.64
vt 0.275 0.64
vt 0.3 0.64
vt 0.325 0.64
vt 0.15 0.56
vt 0.175 0.56
vt 0.2 0.56
vt 0.225 0.56
vt 0.05 0.32
vt 0.075 0.32
vt 0.1 0.32
vt 0.25 0.6
vt 0.275 0.6
vt 0.3 0.6
vt 0.325 0.6
vt 0.15 0.52
vt 0.175 0.52
vt 0.2 0.52
vt 0.225 0.52
vt 0 0.68
vt 0.025 0.68
vt 0.025 0.72
vt 0 0.72
vt 0.05 0.68
vt 0.05 0.72
vt 0.075 0.68
vt 0.075 0.72
vt 0.4 0.8
vt 0.425 0.8
vt 0.425 0.84
vt 0.4 0.84
vt 0 0.64
vt 0.025 0.64
vt 0.05 0.64
vt 0.075 0.64
vt 0.4 0.76
vt 0.425 0.76
vt 0.325 0.92
vt 0.35 0.92
vt 0.35 0.96
vt 0.325 0.96
vt 0.375 0.92
vt 0.4 0.92
vt 0.4 0.96
vt 0.375 0.96
vt 0.4 0.72
vt 0.425 0.72
vt 0.325 0.84
vt 0.35 0.84
vt 0.35 0.88
vt 0.325 0.88
vt 0.375 0.84
vt 0.4 0.88
vt 0.375 0.88
vt 0 0.6
vt 0.025 0.6
vt 0.05 0.6
vt 0.075 0.6

# Normal
vn 0 0 -1

# Mesh description
g Casa_mesh_0002

# Faces
f 1/1/1 2/2/1 3/3/1 4/4/1
f 5/2/1 6/5/1 7/6/1 8/3/1
f 9/5/1 10/7/1 11/8/1 12/6/1
f 13/9/1 14/10/1 15/11/1 16/12/1
f 17/10/1 18/13/1 19/14/1 20/11/1
f 21/13/1 22/15/1 23/16/1 24/14/1
f 25/17/1 26/18/1 27/19/1 28/20/1
f 29/18/1 30/21/1 31/22/1 32/19/1
f 33/23/1 34/24/1 35/2/1 36/1/1
f 37/24/1 38/25/1 39/5/1 40/2/1
f 41/25/1 42/26/1 43/7/1 44/5/1
f 45/27/1 46/28/1 47/10/1 48/9/1
f 49/28/1 50/29/1 51/13/1 52/10/1
f 53/29/1 54/30/1 55/15/1 56/13/1
f 57/31/1 58/32/1 59/18/1 60/17/1
f 61/32/1 62/33/1 63/21/1 64/18/1
f 65/34/1 66/35/1 67/24/1 68/23/1
f 69/35/1 70/36/1 71/25/1 72/24/1
f 73/36/1 74/37/1 75/26/1 76/25/1
f 77/38/1 78/39/1 79/28/1 80/27/1
f 81/39/1 82/40/1 83/29/1 84/28/1
f 85/40/1 86/41/1 87/30/1 88/29/1
f 89/42/1 90/43/1 91/44/1 92/45/1
f 93/43/1 94/46/1 95/47/1 96/44/1
f 97/46/1 98/48/1 99/49/1 100/47/1
f 101/50/1 102/51/1 103/52/1 104/53/1
f 105/54/1 106/55/1 107/43/1 108/42/1
f 109/55/1 110/56/1 111/46/1 112/43/1
f 113/56/1 114/57/1 115/48/1 116/46/1
f 117/58/1 118/59/1 119/51/1 120/50/1
f 121/60/1 122/61/1 123/62/1 124/63/1
f 125/64/1 126/65/1 127/66/1 128/67/1
f 129/54/1 130/55/1 131/43/1 132/42/1
f 133/55/1 134/56/1 135/46/1 136/43/1
f 137/56/1 138/57/1 139/48/1 140/46/1
f 141/68/1 142/69/1 143/59/1 144/58/1
f 145/70/1 146/71/1 147/72/1 148/73/1
f 149/74/1 150/53/1 151/75/1 152/76/1
f 153/77/1 154/78/1 155/55/1 156/54/1
f 157/78/1 158/79/1 159/56/1 160/55/1
f 161/79/1 162/80/1 163/57/1 164/56/1
f 165/42/1 166/43/1 167/44/1 168/45/1
f 169/43/1 170/46/1 171/47/1 172/44/1
f 173/46/1 174/48/1 175/49/1 176/47/1

