# Tiled2Unity generated file. Do not modify by hand.
# Wavefront file for 'Casa_mesh_0003.obj'

# Vertices (Count = 40)
v -4 -1 0
v -5 -1 0
v -5 0 0
v -4 0 0
v -8 -1 0
v -9 -1 0
v -9 0 0
v -8 0 0
v -4 -2 0
v -5 -2 0
v -5 -1 0
v -4 -1 0
v -8 -2 0
v -9 -2 0
v -9 -1 0
v -8 -1 0
v -1 -3 0
v -2 -3 0
v -2 -2 0
v -1 -2 0
v -8 -3 0
v -9 -3 0
v -9 -2 0
v -8 -2 0
v -8 -4 0
v -9 -4 0
v -9 -3 0
v -8 -3 0
v -7 -7 0
v -8 -7 0
v -8 -6 0
v -7 -6 0
v -1 -12 0
v -2 -12 0
v -2 -11 0
v -1 -11 0
v -10 -12 0
v -11 -12 0
v -11 -11 0
v -10 -11 0

# Texture cooridinates (Count = 26)
vt 0.1 0.36
vt 0.125 0.36
vt 0.125 0.4
vt 0.1 0.4
vt 0.1 0.32
vt 0.125 0.32
vt 0.325 0.6
vt 0.35 0.6
vt 0.35 0.64
vt 0.325 0.64
vt 0.2 0.48
vt 0.225 0.48
vt 0.225 0.52
vt 0.2 0.52
vt 0.2 0.44
vt 0.225 0.44
vt 0.35 0.72
vt 0.375 0.72
vt 0.375 0.76
vt 0.35 0.76
vt 0.275 0.52
vt 0.3 0.52
vt 0.3 0.56
vt 0.275 0.56
vt 0.3 0.6
vt 0.275 0.6

# Normal
vn 0 0 -1

# Mesh description
g Casa_mesh_0003

# Faces
f 1/1/1 2/2/1 3/3/1 4/4/1
f 5/1/1 6/2/1 7/3/1 8/4/1
f 9/5/1 10/6/1 11/2/1 12/1/1
f 13/5/1 14/6/1 15/2/1 16/1/1
f 17/7/1 18/8/1 19/9/1 20/10/1
f 21/11/1 22/12/1 23/13/1 24/14/1
f 25/15/1 26/16/1 27/12/1 28/11/1
f 29/17/1 30/18/1 31/19/1 32/20/1
f 33/21/1 34/22/1 35/23/1 36/24/1
f 37/24/1 38/23/1 39/25/1 40/26/1

