# Tiled2Unity generated file. Do not modify by hand.
# Wavefront file for 'Casa_mesh_0001.obj'

# Vertices (Count = 576)
v 0 -1 0
v -1 -1 0
v -1 0 0
v 0 0 0
v -1 -1 0
v -2 -1 0
v -2 0 0
v -1 0 0
v -2 -1 0
v -3 -1 0
v -3 0 0
v -2 0 0
v -3 -1 0
v -4 -1 0
v -4 0 0
v -3 0 0
v -4 -1 0
v -5 -1 0
v -5 0 0
v -4 0 0
v -5 -1 0
v -6 -1 0
v -6 0 0
v -5 0 0
v -6 -1 0
v -7 -1 0
v -7 0 0
v -6 0 0
v -7 -1 0
v -8 -1 0
v -8 0 0
v -7 0 0
v -8 -1 0
v -9 -1 0
v -9 0 0
v -8 0 0
v -9 -1 0
v -10 -1 0
v -10 0 0
v -9 0 0
v -10 -1 0
v -11 -1 0
v -11 0 0
v -10 0 0
v -11 -1 0
v -12 -1 0
v -12 0 0
v -11 0 0
v 0 -2 0
v -1 -2 0
v -1 -1 0
v 0 -1 0
v -1 -2 0
v -2 -2 0
v -2 -1 0
v -1 -1 0
v -2 -2 0
v -3 -2 0
v -3 -1 0
v -2 -1 0
v -3 -2 0
v -4 -2 0
v -4 -1 0
v -3 -1 0
v -4 -2 0
v -5 -2 0
v -5 -1 0
v -4 -1 0
v -5 -2 0
v -6 -2 0
v -6 -1 0
v -5 -1 0
v -6 -2 0
v -7 -2 0
v -7 -1 0
v -6 -1 0
v -7 -2 0
v -8 -2 0
v -8 -1 0
v -7 -1 0
v -8 -2 0
v -9 -2 0
v -9 -1 0
v -8 -1 0
v -9 -2 0
v -10 -2 0
v -10 -1 0
v -9 -1 0
v -10 -2 0
v -11 -2 0
v -11 -1 0
v -10 -1 0
v -11 -2 0
v -12 -2 0
v -12 -1 0
v -11 -1 0
v 0 -3 0
v -1 -3 0
v -1 -2 0
v 0 -2 0
v -1 -3 0
v -2 -3 0
v -2 -2 0
v -1 -2 0
v -2 -3 0
v -3 -3 0
v -3 -2 0
v -2 -2 0
v -3 -3 0
v -4 -3 0
v -4 -2 0
v -3 -2 0
v -4 -3 0
v -5 -3 0
v -5 -2 0
v -4 -2 0
v -5 -3 0
v -6 -3 0
v -6 -2 0
v -5 -2 0
v -6 -3 0
v -7 -3 0
v -7 -2 0
v -6 -2 0
v -7 -3 0
v -8 -3 0
v -8 -2 0
v -7 -2 0
v -8 -3 0
v -9 -3 0
v -9 -2 0
v -8 -2 0
v -9 -3 0
v -10 -3 0
v -10 -2 0
v -9 -2 0
v -10 -3 0
v -11 -3 0
v -11 -2 0
v -10 -2 0
v -11 -3 0
v -12 -3 0
v -12 -2 0
v -11 -2 0
v 0 -4 0
v -1 -4 0
v -1 -3 0
v 0 -3 0
v -1 -4 0
v -2 -4 0
v -2 -3 0
v -1 -3 0
v -2 -4 0
v -3 -4 0
v -3 -3 0
v -2 -3 0
v -3 -4 0
v -4 -4 0
v -4 -3 0
v -3 -3 0
v -4 -4 0
v -5 -4 0
v -5 -3 0
v -4 -3 0
v -5 -4 0
v -6 -4 0
v -6 -3 0
v -5 -3 0
v -6 -4 0
v -7 -4 0
v -7 -3 0
v -6 -3 0
v -7 -4 0
v -8 -4 0
v -8 -3 0
v -7 -3 0
v -8 -4 0
v -9 -4 0
v -9 -3 0
v -8 -3 0
v -9 -4 0
v -10 -4 0
v -10 -3 0
v -9 -3 0
v -10 -4 0
v -11 -4 0
v -11 -3 0
v -10 -3 0
v -11 -4 0
v -12 -4 0
v -12 -3 0
v -11 -3 0
v 0 -5 0
v -1 -5 0
v -1 -4 0
v 0 -4 0
v -1 -5 0
v -2 -5 0
v -2 -4 0
v -1 -4 0
v -2 -5 0
v -3 -5 0
v -3 -4 0
v -2 -4 0
v -3 -5 0
v -4 -5 0
v -4 -4 0
v -3 -4 0
v -4 -5 0
v -5 -5 0
v -5 -4 0
v -4 -4 0
v -5 -5 0
v -6 -5 0
v -6 -4 0
v -5 -4 0
v -6 -5 0
v -7 -5 0
v -7 -4 0
v -6 -4 0
v -7 -5 0
v -8 -5 0
v -8 -4 0
v -7 -4 0
v -8 -5 0
v -9 -5 0
v -9 -4 0
v -8 -4 0
v -9 -5 0
v -10 -5 0
v -10 -4 0
v -9 -4 0
v -10 -5 0
v -11 -5 0
v -11 -4 0
v -10 -4 0
v -11 -5 0
v -12 -5 0
v -12 -4 0
v -11 -4 0
v 0 -6 0
v -1 -6 0
v -1 -5 0
v 0 -5 0
v -1 -6 0
v -2 -6 0
v -2 -5 0
v -1 -5 0
v -2 -6 0
v -3 -6 0
v -3 -5 0
v -2 -5 0
v -3 -6 0
v -4 -6 0
v -4 -5 0
v -3 -5 0
v -4 -6 0
v -5 -6 0
v -5 -5 0
v -4 -5 0
v -5 -6 0
v -6 -6 0
v -6 -5 0
v -5 -5 0
v -6 -6 0
v -7 -6 0
v -7 -5 0
v -6 -5 0
v -7 -6 0
v -8 -6 0
v -8 -5 0
v -7 -5 0
v -8 -6 0
v -9 -6 0
v -9 -5 0
v -8 -5 0
v -9 -6 0
v -10 -6 0
v -10 -5 0
v -9 -5 0
v -10 -6 0
v -11 -6 0
v -11 -5 0
v -10 -5 0
v -11 -6 0
v -12 -6 0
v -12 -5 0
v -11 -5 0
v 0 -7 0
v -1 -7 0
v -1 -6 0
v 0 -6 0
v -1 -7 0
v -2 -7 0
v -2 -6 0
v -1 -6 0
v -2 -7 0
v -3 -7 0
v -3 -6 0
v -2 -6 0
v -3 -7 0
v -4 -7 0
v -4 -6 0
v -3 -6 0
v -4 -7 0
v -5 -7 0
v -5 -6 0
v -4 -6 0
v -5 -7 0
v -6 -7 0
v -6 -6 0
v -5 -6 0
v -6 -7 0
v -7 -7 0
v -7 -6 0
v -6 -6 0
v -7 -7 0
v -8 -7 0
v -8 -6 0
v -7 -6 0
v -8 -7 0
v -9 -7 0
v -9 -6 0
v -8 -6 0
v -9 -7 0
v -10 -7 0
v -10 -6 0
v -9 -6 0
v -10 -7 0
v -11 -7 0
v -11 -6 0
v -10 -6 0
v -11 -7 0
v -12 -7 0
v -12 -6 0
v -11 -6 0
v 0 -8 0
v -1 -8 0
v -1 -7 0
v 0 -7 0
v -1 -8 0
v -2 -8 0
v -2 -7 0
v -1 -7 0
v -2 -8 0
v -3 -8 0
v -3 -7 0
v -2 -7 0
v -3 -8 0
v -4 -8 0
v -4 -7 0
v -3 -7 0
v -4 -8 0
v -5 -8 0
v -5 -7 0
v -4 -7 0
v -5 -8 0
v -6 -8 0
v -6 -7 0
v -5 -7 0
v -6 -8 0
v -7 -8 0
v -7 -7 0
v -6 -7 0
v -7 -8 0
v -8 -8 0
v -8 -7 0
v -7 -7 0
v -8 -8 0
v -9 -8 0
v -9 -7 0
v -8 -7 0
v -9 -8 0
v -10 -8 0
v -10 -7 0
v -9 -7 0
v -10 -8 0
v -11 -8 0
v -11 -7 0
v -10 -7 0
v -11 -8 0
v -12 -8 0
v -12 -7 0
v -11 -7 0
v 0 -9 0
v -1 -9 0
v -1 -8 0
v 0 -8 0
v -1 -9 0
v -2 -9 0
v -2 -8 0
v -1 -8 0
v -2 -9 0
v -3 -9 0
v -3 -8 0
v -2 -8 0
v -3 -9 0
v -4 -9 0
v -4 -8 0
v -3 -8 0
v -4 -9 0
v -5 -9 0
v -5 -8 0
v -4 -8 0
v -5 -9 0
v -6 -9 0
v -6 -8 0
v -5 -8 0
v -6 -9 0
v -7 -9 0
v -7 -8 0
v -6 -8 0
v -7 -9 0
v -8 -9 0
v -8 -8 0
v -7 -8 0
v -8 -9 0
v -9 -9 0
v -9 -8 0
v -8 -8 0
v -9 -9 0
v -10 -9 0
v -10 -8 0
v -9 -8 0
v -10 -9 0
v -11 -9 0
v -11 -8 0
v -10 -8 0
v -11 -9 0
v -12 -9 0
v -12 -8 0
v -11 -8 0
v 0 -10 0
v -1 -10 0
v -1 -9 0
v 0 -9 0
v -1 -10 0
v -2 -10 0
v -2 -9 0
v -1 -9 0
v -2 -10 0
v -3 -10 0
v -3 -9 0
v -2 -9 0
v -3 -10 0
v -4 -10 0
v -4 -9 0
v -3 -9 0
v -4 -10 0
v -5 -10 0
v -5 -9 0
v -4 -9 0
v -5 -10 0
v -6 -10 0
v -6 -9 0
v -5 -9 0
v -6 -10 0
v -7 -10 0
v -7 -9 0
v -6 -9 0
v -7 -10 0
v -8 -10 0
v -8 -9 0
v -7 -9 0
v -8 -10 0
v -9 -10 0
v -9 -9 0
v -8 -9 0
v -9 -10 0
v -10 -10 0
v -10 -9 0
v -9 -9 0
v -10 -10 0
v -11 -10 0
v -11 -9 0
v -10 -9 0
v -11 -10 0
v -12 -10 0
v -12 -9 0
v -11 -9 0
v 0 -11 0
v -1 -11 0
v -1 -10 0
v 0 -10 0
v -1 -11 0
v -2 -11 0
v -2 -10 0
v -1 -10 0
v -2 -11 0
v -3 -11 0
v -3 -10 0
v -2 -10 0
v -3 -11 0
v -4 -11 0
v -4 -10 0
v -3 -10 0
v -4 -11 0
v -5 -11 0
v -5 -10 0
v -4 -10 0
v -5 -11 0
v -6 -11 0
v -6 -10 0
v -5 -10 0
v -6 -11 0
v -7 -11 0
v -7 -10 0
v -6 -10 0
v -7 -11 0
v -8 -11 0
v -8 -10 0
v -7 -10 0
v -8 -11 0
v -9 -11 0
v -9 -10 0
v -8 -10 0
v -9 -11 0
v -10 -11 0
v -10 -10 0
v -9 -10 0
v -10 -11 0
v -11 -11 0
v -11 -10 0
v -10 -10 0
v -11 -11 0
v -12 -11 0
v -12 -10 0
v -11 -10 0
v 0 -12 0
v -1 -12 0
v -1 -11 0
v 0 -11 0
v -1 -12 0
v -2 -12 0
v -2 -11 0
v -1 -11 0
v -2 -12 0
v -3 -12 0
v -3 -11 0
v -2 -11 0
v -3 -12 0
v -4 -12 0
v -4 -11 0
v -3 -11 0
v -4 -12 0
v -5 -12 0
v -5 -11 0
v -4 -11 0
v -5 -12 0
v -6 -12 0
v -6 -11 0
v -5 -11 0
v -6 -12 0
v -7 -12 0
v -7 -11 0
v -6 -11 0
v -7 -12 0
v -8 -12 0
v -8 -11 0
v -7 -11 0
v -8 -12 0
v -9 -12 0
v -9 -11 0
v -8 -11 0
v -9 -12 0
v -10 -12 0
v -10 -11 0
v -9 -11 0
v -10 -12 0
v -11 -12 0
v -11 -11 0
v -10 -11 0
v -11 -12 0
v -12 -12 0
v -12 -11 0
v -11 -11 0

# Texture cooridinates (Count = 51)
vt 0 0.6875
vt 0.03125 0.6875
vt 0.03125 0.75
vt 0 0.75
vt 0.0625 0.6875
vt 0.0625 0.75
vt 0.375 0.6875
vt 0.40625 0.6875
vt 0.40625 0.75
vt 0.375 0.75
vt 0.4375 0.6875
vt 0.4375 0.75
vt 0.46875 0.6875
vt 0.46875 0.75
vt 0.5 0.6875
vt 0.5 0.75
vt 0.71875 0.6875
vt 0.75 0.6875
vt 0.75 0.75
vt 0.71875 0.75
vt 0 0.5625
vt 0.03125 0.5625
vt 0.03125 0.625
vt 0 0.625
vt 0.0625 0.5625
vt 0.0625 0.625
vt 0.40625 0.5625
vt 0.4375 0.5625
vt 0.4375 0.625
vt 0.40625 0.625
vt 0.71875 0.5625
vt 0.75 0.5625
vt 0.75 0.625
vt 0.71875 0.625
vt 0 0.5
vt 0.03125 0.5
vt 0.375 0.5
vt 0.40625 0.5
vt 0.375 0.5625
vt 0.71875 0.5
vt 0.75 0.5
vt 0 0.375
vt 0.03125 0.375
vt 0.03125 0.4375
vt 0 0.4375
vt 0.5 0.3125
vt 0.53125 0.3125
vt 0.53125 0.375
vt 0.5 0.375
vt 0.71875 0.4375
vt 0.75 0.4375

# Normal
vn 0 0 -1

# Mesh description
g Casa_mesh_0001

# Faces
f 1/1/1 2/2/1 3/3/1 4/4/1
f 5/2/1 6/5/1 7/6/1 8/3/1
f 9/7/1 10/8/1 11/9/1 12/10/1
f 13/8/1 14/11/1 15/12/1 16/9/1
f 17/11/1 18/13/1 19/14/1 20/12/1
f 21/13/1 22/15/1 23/16/1 24/14/1
f 25/13/1 26/15/1 27/16/1 28/14/1
f 29/7/1 30/8/1 31/9/1 32/10/1
f 33/8/1 34/11/1 35/12/1 36/9/1
f 37/11/1 38/13/1 39/14/1 40/12/1
f 41/13/1 42/15/1 43/16/1 44/14/1
f 45/17/1 46/18/1 47/19/1 48/20/1
f 49/21/1 50/22/1 51/23/1 52/24/1
f 53/22/1 54/25/1 55/26/1 56/23/1
f 57/22/1 58/25/1 59/26/1 60/23/1
f 61/22/1 62/25/1 63/26/1 64/23/1
f 65/22/1 66/25/1 67/26/1 68/23/1
f 69/22/1 70/25/1 71/26/1 72/23/1
f 73/22/1 74/25/1 75/26/1 76/23/1
f 77/27/1 78/28/1 79/29/1 80/30/1
f 81/22/1 82/25/1 83/26/1 84/23/1
f 85/22/1 86/25/1 87/26/1 88/23/1
f 89/22/1 90/25/1 91/26/1 92/23/1
f 93/31/1 94/32/1 95/33/1 96/34/1
f 97/35/1 98/36/1 99/22/1 100/21/1
f 101/37/1 102/38/1 103/27/1 104/39/1
f 105/37/1 106/38/1 107/27/1 108/39/1
f 109/37/1 110/38/1 111/27/1 112/39/1
f 113/37/1 114/38/1 115/27/1 116/39/1
f 117/37/1 118/38/1 119/27/1 120/39/1
f 121/37/1 122/38/1 123/27/1 124/39/1
f 125/37/1 126/38/1 127/27/1 128/39/1
f 129/37/1 130/38/1 131/27/1 132/39/1
f 133/37/1 134/38/1 135/27/1 136/39/1
f 137/37/1 138/38/1 139/27/1 140/39/1
f 141/40/1 142/41/1 143/32/1 144/31/1
f 145/42/1 146/43/1 147/44/1 148/45/1
f 149/46/1 150/47/1 151/48/1 152/49/1
f 153/46/1 154/47/1 155/48/1 156/49/1
f 157/46/1 158/47/1 159/48/1 160/49/1
f 161/46/1 162/47/1 163/48/1 164/49/1
f 165/46/1 166/47/1 167/48/1 168/49/1
f 169/46/1 170/47/1 171/48/1 172/49/1
f 173/46/1 174/47/1 175/48/1 176/49/1
f 177/46/1 178/47/1 179/48/1 180/49/1
f 181/46/1 182/47/1 183/48/1 184/49/1
f 185/46/1 186/47/1 187/48/1 188/49/1
f 189/50/1 190/51/1 191/41/1 192/40/1
f 193/42/1 194/43/1 195/44/1 196/45/1
f 197/46/1 198/47/1 199/48/1 200/49/1
f 201/46/1 202/47/1 203/48/1 204/49/1
f 205/46/1 206/47/1 207/48/1 208/49/1
f 209/46/1 210/47/1 211/48/1 212/49/1
f 213/46/1 214/47/1 215/48/1 216/49/1
f 217/46/1 218/47/1 219/48/1 220/49/1
f 221/46/1 222/47/1 223/48/1 224/49/1
f 225/46/1 226/47/1 227/48/1 228/49/1
f 229/46/1 230/47/1 231/48/1 232/49/1
f 233/46/1 234/47/1 235/48/1 236/49/1
f 237/50/1 238/51/1 239/41/1 240/40/1
f 241/42/1 242/43/1 243/44/1 244/45/1
f 245/46/1 246/47/1 247/48/1 248/49/1
f 249/46/1 250/47/1 251/48/1 252/49/1
f 253/46/1 254/47/1 255/48/1 256/49/1
f 257/46/1 258/47/1 259/48/1 260/49/1
f 261/46/1 262/47/1 263/48/1 264/49/1
f 265/46/1 266/47/1 267/48/1 268/49/1
f 269/46/1 270/47/1 271/48/1 272/49/1
f 273/46/1 274/47/1 275/48/1 276/49/1
f 277/46/1 278/47/1 279/48/1 280/49/1
f 281/46/1 282/47/1 283/48/1 284/49/1
f 285/50/1 286/51/1 287/41/1 288/40/1
f 289/42/1 290/43/1 291/44/1 292/45/1
f 293/46/1 294/47/1 295/48/1 296/49/1
f 297/46/1 298/47/1 299/48/1 300/49/1
f 301/46/1 302/47/1 303/48/1 304/49/1
f 305/46/1 306/47/1 307/48/1 308/49/1
f 309/46/1 310/47/1 311/48/1 312/49/1
f 313/46/1 314/47/1 315/48/1 316/49/1
f 317/46/1 318/47/1 319/48/1 320/49/1
f 321/46/1 322/47/1 323/48/1 324/49/1
f 325/46/1 326/47/1 327/48/1 328/49/1
f 329/46/1 330/47/1 331/48/1 332/49/1
f 333/50/1 334/51/1 335/41/1 336/40/1
f 337/42/1 338/43/1 339/44/1 340/45/1
f 341/46/1 342/47/1 343/48/1 344/49/1
f 345/46/1 346/47/1 347/48/1 348/49/1
f 349/46/1 350/47/1 351/48/1 352/49/1
f 353/46/1 354/47/1 355/48/1 356/49/1
f 357/46/1 358/47/1 359/48/1 360/49/1
f 361/46/1 362/47/1 363/48/1 364/49/1
f 365/46/1 366/47/1 367/48/1 368/49/1
f 369/46/1 370/47/1 371/48/1 372/49/1
f 373/46/1 374/47/1 375/48/1 376/49/1
f 377/46/1 378/47/1 379/48/1 380/49/1
f 381/50/1 382/51/1 383/41/1 384/40/1
f 385/42/1 386/43/1 387/44/1 388/45/1
f 389/46/1 390/47/1 391/48/1 392/49/1
f 393/46/1 394/47/1 395/48/1 396/49/1
f 397/46/1 398/47/1 399/48/1 400/49/1
f 401/46/1 402/47/1 403/48/1 404/49/1
f 405/46/1 406/47/1 407/48/1 408/49/1
f 409/46/1 410/47/1 411/48/1 412/49/1
f 413/46/1 414/47/1 415/48/1 416/49/1
f 417/46/1 418/47/1 419/48/1 420/49/1
f 421/46/1 422/47/1 423/48/1 424/49/1
f 425/46/1 426/47/1 427/48/1 428/49/1
f 429/50/1 430/51/1 431/41/1 432/40/1
f 433/42/1 434/43/1 435/44/1 436/45/1
f 437/46/1 438/47/1 439/48/1 440/49/1
f 441/46/1 442/47/1 443/48/1 444/49/1
f 445/46/1 446/47/1 447/48/1 448/49/1
f 449/46/1 450/47/1 451/48/1 452/49/1
f 453/46/1 454/47/1 455/48/1 456/49/1
f 457/46/1 458/47/1 459/48/1 460/49/1
f 461/46/1 462/47/1 463/48/1 464/49/1
f 465/46/1 466/47/1 467/48/1 468/49/1
f 469/46/1 470/47/1 471/48/1 472/49/1
f 473/46/1 474/47/1 475/48/1 476/49/1
f 477/50/1 478/51/1 479/41/1 480/40/1
f 481/42/1 482/43/1 483/44/1 484/45/1
f 485/46/1 486/47/1 487/48/1 488/49/1
f 489/46/1 490/47/1 491/48/1 492/49/1
f 493/46/1 494/47/1 495/48/1 496/49/1
f 497/46/1 498/47/1 499/48/1 500/49/1
f 501/46/1 502/47/1 503/48/1 504/49/1
f 505/46/1 506/47/1 507/48/1 508/49/1
f 509/46/1 510/47/1 511/48/1 512/49/1
f 513/46/1 514/47/1 515/48/1 516/49/1
f 517/46/1 518/47/1 519/48/1 520/49/1
f 521/46/1 522/47/1 523/48/1 524/49/1
f 525/50/1 526/51/1 527/41/1 528/40/1
f 529/42/1 530/43/1 531/44/1 532/45/1
f 533/46/1 534/47/1 535/48/1 536/49/1
f 537/46/1 538/47/1 539/48/1 540/49/1
f 541/46/1 542/47/1 543/48/1 544/49/1
f 545/46/1 546/47/1 547/48/1 548/49/1
f 549/46/1 550/47/1 551/48/1 552/49/1
f 553/46/1 554/47/1 555/48/1 556/49/1
f 557/46/1 558/47/1 559/48/1 560/49/1
f 561/46/1 562/47/1 563/48/1 564/49/1
f 565/46/1 566/47/1 567/48/1 568/49/1
f 569/46/1 570/47/1 571/48/1 572/49/1
f 573/50/1 574/51/1 575/41/1 576/40/1

