# Tiled2Unity generated file. Do not modify by hand.
# Wavefront file for 'Secret_mesh_0003.obj'

# Vertices (Count = 32)
v -2 -6 0
v -3 -6 0
v -3 -5 0
v -2 -5 0
v -3 -6 0
v -4 -6 0
v -4 -5 0
v -3 -5 0
v -10 -6 0
v -11 -6 0
v -11 -5 0
v -10 -5 0
v -2 -7 0
v -3 -7 0
v -3 -6 0
v -2 -6 0
v -3 -7 0
v -4 -7 0
v -4 -6 0
v -3 -6 0
v -8 -7 0
v -9 -7 0
v -9 -6 0
v -8 -6 0
v -9 -7 0
v -10 -7 0
v -10 -6 0
v -9 -6 0
v -10 -7 0
v -11 -7 0
v -11 -6 0
v -10 -6 0

# Texture cooridinates (Count = 24)
vt 0.775 0.8888889
vt 0.8 0.8888889
vt 0.8 0.9166667
vt 0.775 0.9166667
vt 0.825 0.8888889
vt 0.825 0.9166667
vt 0 0.5
vt 0.025 0.5
vt 0.025 0.5277778
vt 0 0.5277778
vt 0.775 0.8611111
vt 0.8 0.8611111
vt 0.825 0.8611111
vt 0 0.4444444
vt 0.025 0.4444444
vt 0.025 0.4722222
vt 0 0.4722222
vt 0.1 0.5
vt 0.125 0.5
vt 0.125 0.5277778
vt 0.1 0.5277778
vt 0.075 0.4722222
vt 0.1 0.4722222
vt 0.075 0.5

# Normal
vn 0 0 -1

# Mesh description
g Secret_mesh_0003

# Faces
f 1/1/1 2/2/1 3/3/1 4/4/1
f 5/2/1 6/5/1 7/6/1 8/3/1
f 9/7/1 10/8/1 11/9/1 12/10/1
f 13/11/1 14/12/1 15/2/1 16/1/1
f 17/12/1 18/13/1 19/5/1 20/2/1
f 21/14/1 22/15/1 23/16/1 24/17/1
f 25/18/1 26/19/1 27/20/1 28/21/1
f 29/22/1 30/23/1 31/18/1 32/24/1

