# Tiled2Unity generated file. Do not modify by hand.
# Wavefront file for 'Casa2doPiso_mesh_0001.obj'

# Vertices (Count = 568)
v 0 -1 0
v -1 -1 0
v -1 0 0
v 0 0 0
v -1 -1 0
v -2 -1 0
v -2 0 0
v -1 0 0
v -2 -1 0
v -3 -1 0
v -3 0 0
v -2 0 0
v -3 -1 0
v -4 -1 0
v -4 0 0
v -3 0 0
v -4 -1 0
v -5 -1 0
v -5 0 0
v -4 0 0
v -5 -1 0
v -6 -1 0
v -6 0 0
v -5 0 0
v -6 -1 0
v -7 -1 0
v -7 0 0
v -6 0 0
v -7 -1 0
v -8 -1 0
v -8 0 0
v -7 0 0
v -8 -1 0
v -9 -1 0
v -9 0 0
v -8 0 0
v -9 -1 0
v -10 -1 0
v -10 0 0
v -9 0 0
v -10 -1 0
v -11 -1 0
v -11 0 0
v -10 0 0
v -11 -1 0
v -12 -1 0
v -12 0 0
v -11 0 0
v 0 -2 0
v -1 -2 0
v -1 -1 0
v 0 -1 0
v -1 -2 0
v -2 -2 0
v -2 -1 0
v -1 -1 0
v -2 -2 0
v -3 -2 0
v -3 -1 0
v -2 -1 0
v -3 -2 0
v -4 -2 0
v -4 -1 0
v -3 -1 0
v -4 -2 0
v -5 -2 0
v -5 -1 0
v -4 -1 0
v -5 -2 0
v -6 -2 0
v -6 -1 0
v -5 -1 0
v -6 -2 0
v -7 -2 0
v -7 -1 0
v -6 -1 0
v -7 -2 0
v -8 -2 0
v -8 -1 0
v -7 -1 0
v -8 -2 0
v -9 -2 0
v -9 -1 0
v -8 -1 0
v -10 -2 0
v -11 -2 0
v -11 -1 0
v -10 -1 0
v -11 -2 0
v -12 -2 0
v -12 -1 0
v -11 -1 0
v 0 -3 0
v -1 -3 0
v -1 -2 0
v 0 -2 0
v -1 -3 0
v -2 -3 0
v -2 -2 0
v -1 -2 0
v -2 -3 0
v -3 -3 0
v -3 -2 0
v -2 -2 0
v -3 -3 0
v -4 -3 0
v -4 -2 0
v -3 -2 0
v -4 -3 0
v -5 -3 0
v -5 -2 0
v -4 -2 0
v -5 -3 0
v -6 -3 0
v -6 -2 0
v -5 -2 0
v -6 -3 0
v -7 -3 0
v -7 -2 0
v -6 -2 0
v -7 -3 0
v -8 -3 0
v -8 -2 0
v -7 -2 0
v -8 -3 0
v -9 -3 0
v -9 -2 0
v -8 -2 0
v -10 -3 0
v -11 -3 0
v -11 -2 0
v -10 -2 0
v -11 -3 0
v -12 -3 0
v -12 -2 0
v -11 -2 0
v 0 -4 0
v -1 -4 0
v -1 -3 0
v 0 -3 0
v -1 -4 0
v -2 -4 0
v -2 -3 0
v -1 -3 0
v -2 -4 0
v -3 -4 0
v -3 -3 0
v -2 -3 0
v -3 -4 0
v -4 -4 0
v -4 -3 0
v -3 -3 0
v -4 -4 0
v -5 -4 0
v -5 -3 0
v -4 -3 0
v -5 -4 0
v -6 -4 0
v -6 -3 0
v -5 -3 0
v -6 -4 0
v -7 -4 0
v -7 -3 0
v -6 -3 0
v -7 -4 0
v -8 -4 0
v -8 -3 0
v -7 -3 0
v -8 -4 0
v -9 -4 0
v -9 -3 0
v -8 -3 0
v -9 -4 0
v -10 -4 0
v -10 -3 0
v -9 -3 0
v -10 -4 0
v -11 -4 0
v -11 -3 0
v -10 -3 0
v -11 -4 0
v -12 -4 0
v -12 -3 0
v -11 -3 0
v 0 -5 0
v -1 -5 0
v -1 -4 0
v 0 -4 0
v -1 -5 0
v -2 -5 0
v -2 -4 0
v -1 -4 0
v -2 -5 0
v -3 -5 0
v -3 -4 0
v -2 -4 0
v -3 -5 0
v -4 -5 0
v -4 -4 0
v -3 -4 0
v -4 -5 0
v -5 -5 0
v -5 -4 0
v -4 -4 0
v -5 -5 0
v -6 -5 0
v -6 -4 0
v -5 -4 0
v -6 -5 0
v -7 -5 0
v -7 -4 0
v -6 -4 0
v -7 -5 0
v -8 -5 0
v -8 -4 0
v -7 -4 0
v -8 -5 0
v -9 -5 0
v -9 -4 0
v -8 -4 0
v -9 -5 0
v -10 -5 0
v -10 -4 0
v -9 -4 0
v -10 -5 0
v -11 -5 0
v -11 -4 0
v -10 -4 0
v -11 -5 0
v -12 -5 0
v -12 -4 0
v -11 -4 0
v 0 -6 0
v -1 -6 0
v -1 -5 0
v 0 -5 0
v -1 -6 0
v -2 -6 0
v -2 -5 0
v -1 -5 0
v -2 -6 0
v -3 -6 0
v -3 -5 0
v -2 -5 0
v -3 -6 0
v -4 -6 0
v -4 -5 0
v -3 -5 0
v -4 -6 0
v -5 -6 0
v -5 -5 0
v -4 -5 0
v -5 -6 0
v -6 -6 0
v -6 -5 0
v -5 -5 0
v -6 -6 0
v -7 -6 0
v -7 -5 0
v -6 -5 0
v -7 -6 0
v -8 -6 0
v -8 -5 0
v -7 -5 0
v -8 -6 0
v -9 -6 0
v -9 -5 0
v -8 -5 0
v -9 -6 0
v -10 -6 0
v -10 -5 0
v -9 -5 0
v -10 -6 0
v -11 -6 0
v -11 -5 0
v -10 -5 0
v -11 -6 0
v -12 -6 0
v -12 -5 0
v -11 -5 0
v 0 -7 0
v -1 -7 0
v -1 -6 0
v 0 -6 0
v -1 -7 0
v -2 -7 0
v -2 -6 0
v -1 -6 0
v -2 -7 0
v -3 -7 0
v -3 -6 0
v -2 -6 0
v -3 -7 0
v -4 -7 0
v -4 -6 0
v -3 -6 0
v -4 -7 0
v -5 -7 0
v -5 -6 0
v -4 -6 0
v -5 -7 0
v -6 -7 0
v -6 -6 0
v -5 -6 0
v -6 -7 0
v -7 -7 0
v -7 -6 0
v -6 -6 0
v -7 -7 0
v -8 -7 0
v -8 -6 0
v -7 -6 0
v -8 -7 0
v -9 -7 0
v -9 -6 0
v -8 -6 0
v -9 -7 0
v -10 -7 0
v -10 -6 0
v -9 -6 0
v -10 -7 0
v -11 -7 0
v -11 -6 0
v -10 -6 0
v -11 -7 0
v -12 -7 0
v -12 -6 0
v -11 -6 0
v 0 -8 0
v -1 -8 0
v -1 -7 0
v 0 -7 0
v -1 -8 0
v -2 -8 0
v -2 -7 0
v -1 -7 0
v -2 -8 0
v -3 -8 0
v -3 -7 0
v -2 -7 0
v -3 -8 0
v -4 -8 0
v -4 -7 0
v -3 -7 0
v -4 -8 0
v -5 -8 0
v -5 -7 0
v -4 -7 0
v -5 -8 0
v -6 -8 0
v -6 -7 0
v -5 -7 0
v -6 -8 0
v -7 -8 0
v -7 -7 0
v -6 -7 0
v -7 -8 0
v -8 -8 0
v -8 -7 0
v -7 -7 0
v -8 -8 0
v -9 -8 0
v -9 -7 0
v -8 -7 0
v -9 -8 0
v -10 -8 0
v -10 -7 0
v -9 -7 0
v -10 -8 0
v -11 -8 0
v -11 -7 0
v -10 -7 0
v -11 -8 0
v -12 -8 0
v -12 -7 0
v -11 -7 0
v 0 -9 0
v -1 -9 0
v -1 -8 0
v 0 -8 0
v -1 -9 0
v -2 -9 0
v -2 -8 0
v -1 -8 0
v -2 -9 0
v -3 -9 0
v -3 -8 0
v -2 -8 0
v -3 -9 0
v -4 -9 0
v -4 -8 0
v -3 -8 0
v -4 -9 0
v -5 -9 0
v -5 -8 0
v -4 -8 0
v -5 -9 0
v -6 -9 0
v -6 -8 0
v -5 -8 0
v -6 -9 0
v -7 -9 0
v -7 -8 0
v -6 -8 0
v -7 -9 0
v -8 -9 0
v -8 -8 0
v -7 -8 0
v -8 -9 0
v -9 -9 0
v -9 -8 0
v -8 -8 0
v -9 -9 0
v -10 -9 0
v -10 -8 0
v -9 -8 0
v -10 -9 0
v -11 -9 0
v -11 -8 0
v -10 -8 0
v -11 -9 0
v -12 -9 0
v -12 -8 0
v -11 -8 0
v 0 -10 0
v -1 -10 0
v -1 -9 0
v 0 -9 0
v -1 -10 0
v -2 -10 0
v -2 -9 0
v -1 -9 0
v -2 -10 0
v -3 -10 0
v -3 -9 0
v -2 -9 0
v -3 -10 0
v -4 -10 0
v -4 -9 0
v -3 -9 0
v -4 -10 0
v -5 -10 0
v -5 -9 0
v -4 -9 0
v -5 -10 0
v -6 -10 0
v -6 -9 0
v -5 -9 0
v -6 -10 0
v -7 -10 0
v -7 -9 0
v -6 -9 0
v -7 -10 0
v -8 -10 0
v -8 -9 0
v -7 -9 0
v -8 -10 0
v -9 -10 0
v -9 -9 0
v -8 -9 0
v -9 -10 0
v -10 -10 0
v -10 -9 0
v -9 -9 0
v -10 -10 0
v -11 -10 0
v -11 -9 0
v -10 -9 0
v -11 -10 0
v -12 -10 0
v -12 -9 0
v -11 -9 0
v 0 -11 0
v -1 -11 0
v -1 -10 0
v 0 -10 0
v -1 -11 0
v -2 -11 0
v -2 -10 0
v -1 -10 0
v -2 -11 0
v -3 -11 0
v -3 -10 0
v -2 -10 0
v -3 -11 0
v -4 -11 0
v -4 -10 0
v -3 -10 0
v -4 -11 0
v -5 -11 0
v -5 -10 0
v -4 -10 0
v -5 -11 0
v -6 -11 0
v -6 -10 0
v -5 -10 0
v -6 -11 0
v -7 -11 0
v -7 -10 0
v -6 -10 0
v -7 -11 0
v -8 -11 0
v -8 -10 0
v -7 -10 0
v -8 -11 0
v -9 -11 0
v -9 -10 0
v -8 -10 0
v -9 -11 0
v -10 -11 0
v -10 -10 0
v -9 -10 0
v -10 -11 0
v -11 -11 0
v -11 -10 0
v -10 -10 0
v -11 -11 0
v -12 -11 0
v -12 -10 0
v -11 -10 0
v 0 -12 0
v -1 -12 0
v -1 -11 0
v 0 -11 0
v -1 -12 0
v -2 -12 0
v -2 -11 0
v -1 -11 0
v -2 -12 0
v -3 -12 0
v -3 -11 0
v -2 -11 0
v -3 -12 0
v -4 -12 0
v -4 -11 0
v -3 -11 0
v -4 -12 0
v -5 -12 0
v -5 -11 0
v -4 -11 0
v -5 -12 0
v -6 -12 0
v -6 -11 0
v -5 -11 0
v -6 -12 0
v -7 -12 0
v -7 -11 0
v -6 -11 0
v -7 -12 0
v -8 -12 0
v -8 -11 0
v -7 -11 0
v -8 -12 0
v -9 -12 0
v -9 -11 0
v -8 -11 0
v -9 -12 0
v -10 -12 0
v -10 -11 0
v -9 -11 0
v -10 -12 0
v -11 -12 0
v -11 -11 0
v -10 -11 0
v -11 -12 0
v -12 -12 0
v -12 -11 0
v -11 -11 0

# Texture cooridinates (Count = 133)
vt 0 0.6875
vt 0.03125 0.6875
vt 0.03125 0.75
vt 0 0.75
vt 0.0625 0.6875
vt 0.0625 0.75
vt 0.09375 0.6875
vt 0.09375 0.75
vt 0.125 0.6875
vt 0.125 0.75
vt 0.375 0.6875
vt 0.40625 0.6875
vt 0.40625 0.75
vt 0.375 0.75
vt 0.4375 0.6875
vt 0.4375 0.75
vt 0.46875 0.6875
vt 0.46875 0.75
vt 0.5 0.6875
vt 0.5 0.75
vt 0.53125 0.6875
vt 0.53125 0.75
vt 0.5625 0.6875
vt 0.5625 0.75
vt 0.59375 0.6875
vt 0.625 0.6875
vt 0.625 0.75
vt 0.59375 0.75
vt 0.71875 0.6875
vt 0.75 0.6875
vt 0.75 0.75
vt 0.71875 0.75
vt 0 0.5625
vt 0.03125 0.5625
vt 0.03125 0.625
vt 0 0.625
vt 0.0625 0.5625
vt 0.0625 0.625
vt 0.09375 0.5625
vt 0.09375 0.625
vt 0.125 0.5625
vt 0.125 0.625
vt 0.375 0.5625
vt 0.40625 0.5625
vt 0.40625 0.625
vt 0.375 0.625
vt 0.4375 0.5625
vt 0.4375 0.625
vt 0.46875 0.5625
vt 0.46875 0.625
vt 0.5 0.5625
vt 0.5 0.625
vt 0.53125 0.5625
vt 0.53125 0.625
vt 0.59375 0.5625
vt 0.625 0.5625
vt 0.625 0.625
vt 0.59375 0.625
vt 0.71875 0.5625
vt 0.75 0.5625
vt 0.75 0.625
vt 0.71875 0.625
vt 0 0.5
vt 0.03125 0.5
vt 0.0625 0.5
vt 0.6875 0.5
vt 0.71875 0.5
vt 0.6875 0.5625
vt 0.5 0.5
vt 0.53125 0.5
vt 0.59375 0.5
vt 0.625 0.5
vt 0.75 0.5
vt 0 0.4375
vt 0.03125 0.4375
vt 0.0625 0.4375
vt 0.09375 0.4375
vt 0.09375 0.5
vt 0.125 0.4375
vt 0.125 0.5
vt 0.5 0.4375
vt 0.53125 0.4375
vt 0.5625 0.4375
vt 0.5625 0.5
vt 0.59375 0.4375
vt 0.625 0.4375
vt 0.65625 0.4375
vt 0.65625 0.5
vt 0.6875 0.4375
vt 0.71875 0.4375
vt 0.75 0.4375
vt 0 0.375
vt 0.03125 0.375
vt 0.0625 0.375
vt 0.09375 0.375
vt 0.125 0.375
vt 0.5 0.375
vt 0.53125 0.375
vt 0.5625 0.375
vt 0.59375 0.375
vt 0.625 0.375
vt 0.65625 0.375
vt 0.6875 0.375
vt 0.71875 0.375
vt 0.75 0.375
vt 0 0.3125
vt 0.03125 0.3125
vt 0.0625 0.3125
vt 0.09375 0.3125
vt 0.125 0.3125
vt 0.5 0.3125
vt 0.53125 0.3125
vt 0.5625 0.3125
vt 0.59375 0.3125
vt 0.625 0.3125
vt 0.65625 0.3125
vt 0.6875 0.3125
vt 0.71875 0.3125
vt 0.75 0.3125
vt 0 0.25
vt 0.03125 0.25
vt 0.0625 0.25
vt 0.09375 0.25
vt 0.125 0.25
vt 0.5 0.25
vt 0.53125 0.25
vt 0.5625 0.25
vt 0.59375 0.25
vt 0.625 0.25
vt 0.65625 0.25
vt 0.6875 0.25
vt 0.71875 0.25
vt 0.75 0.25

# Normal
vn 0 0 -1

# Mesh description
g Casa2doPiso_mesh_0001

# Faces
f 1/1/1 2/2/1 3/3/1 4/4/1
f 5/2/1 6/5/1 7/6/1 8/3/1
f 9/5/1 10/7/1 11/8/1 12/6/1
f 13/7/1 14/9/1 15/10/1 16/8/1
f 17/11/1 18/12/1 19/13/1 20/14/1
f 21/12/1 22/15/1 23/16/1 24/13/1
f 25/15/1 26/17/1 27/18/1 28/16/1
f 29/17/1 30/19/1 31/20/1 32/18/1
f 33/19/1 34/21/1 35/22/1 36/20/1
f 37/21/1 38/23/1 39/24/1 40/22/1
f 41/25/1 42/26/1 43/27/1 44/28/1
f 45/29/1 46/30/1 47/31/1 48/32/1
f 49/33/1 50/34/1 51/35/1 52/36/1
f 53/34/1 54/37/1 55/38/1 56/35/1
f 57/37/1 58/39/1 59/40/1 60/38/1
f 61/39/1 62/41/1 63/42/1 64/40/1
f 65/43/1 66/44/1 67/45/1 68/46/1
f 69/44/1 70/47/1 71/48/1 72/45/1
f 73/47/1 74/49/1 75/50/1 76/48/1
f 77/49/1 78/51/1 79/52/1 80/50/1
f 81/51/1 82/53/1 83/54/1 84/52/1
f 85/55/1 86/56/1 87/57/1 88/58/1
f 89/59/1 90/60/1 91/61/1 92/62/1
f 93/63/1 94/64/1 95/34/1 96/33/1
f 97/64/1 98/65/1 99/37/1 100/34/1
f 101/66/1 102/67/1 103/59/1 104/68/1
f 105/66/1 106/67/1 107/59/1 108/68/1
f 109/66/1 110/67/1 111/59/1 112/68/1
f 113/66/1 114/67/1 115/59/1 116/68/1
f 117/66/1 118/67/1 119/59/1 120/68/1
f 121/66/1 122/67/1 123/59/1 124/68/1
f 125/69/1 126/70/1 127/53/1 128/51/1
f 129/71/1 130/72/1 131/56/1 132/55/1
f 133/67/1 134/73/1 135/60/1 136/59/1
f 137/74/1 138/75/1 139/64/1 140/63/1
f 141/75/1 142/76/1 143/65/1 144/64/1
f 145/76/1 146/77/1 147/78/1 148/65/1
f 149/77/1 150/79/1 151/80/1 152/78/1
f 153/81/1 154/82/1 155/70/1 156/69/1
f 157/82/1 158/83/1 159/84/1 160/70/1
f 161/83/1 162/85/1 163/71/1 164/84/1
f 165/85/1 166/86/1 167/72/1 168/71/1
f 169/86/1 170/87/1 171/88/1 172/72/1
f 173/87/1 174/89/1 175/66/1 176/88/1
f 177/89/1 178/90/1 179/67/1 180/66/1
f 181/90/1 182/91/1 183/73/1 184/67/1
f 185/74/1 186/75/1 187/64/1 188/63/1
f 189/75/1 190/76/1 191/65/1 192/64/1
f 193/76/1 194/77/1 195/78/1 196/65/1
f 197/77/1 198/79/1 199/80/1 200/78/1
f 201/81/1 202/82/1 203/70/1 204/69/1
f 205/82/1 206/83/1 207/84/1 208/70/1
f 209/83/1 210/85/1 211/71/1 212/84/1
f 213/85/1 214/86/1 215/72/1 216/71/1
f 217/86/1 218/87/1 219/88/1 220/72/1
f 221/87/1 222/89/1 223/66/1 224/88/1
f 225/89/1 226/90/1 227/67/1 228/66/1
f 229/90/1 230/91/1 231/73/1 232/67/1
f 233/92/1 234/93/1 235/75/1 236/74/1
f 237/93/1 238/94/1 239/76/1 240/75/1
f 241/94/1 242/95/1 243/77/1 244/76/1
f 245/95/1 246/96/1 247/79/1 248/77/1
f 249/97/1 250/98/1 251/82/1 252/81/1
f 253/98/1 254/99/1 255/83/1 256/82/1
f 257/99/1 258/100/1 259/85/1 260/83/1
f 261/100/1 262/101/1 263/86/1 264/85/1
f 265/101/1 266/102/1 267/87/1 268/86/1
f 269/102/1 270/103/1 271/89/1 272/87/1
f 273/103/1 274/104/1 275/90/1 276/89/1
f 277/104/1 278/105/1 279/91/1 280/90/1
f 281/106/1 282/107/1 283/93/1 284/92/1
f 285/107/1 286/108/1 287/94/1 288/93/1
f 289/108/1 290/109/1 291/95/1 292/94/1
f 293/109/1 294/110/1 295/96/1 296/95/1
f 297/111/1 298/112/1 299/98/1 300/97/1
f 301/112/1 302/113/1 303/99/1 304/98/1
f 305/113/1 306/114/1 307/100/1 308/99/1
f 309/114/1 310/115/1 311/101/1 312/100/1
f 313/115/1 314/116/1 315/102/1 316/101/1
f 317/116/1 318/117/1 319/103/1 320/102/1
f 321/117/1 322/118/1 323/104/1 324/103/1
f 325/118/1 326/119/1 327/105/1 328/104/1
f 329/120/1 330/121/1 331/107/1 332/106/1
f 333/121/1 334/122/1 335/108/1 336/107/1
f 337/122/1 338/123/1 339/109/1 340/108/1
f 341/123/1 342/124/1 343/110/1 344/109/1
f 345/125/1 346/126/1 347/112/1 348/111/1
f 349/126/1 350/127/1 351/113/1 352/112/1
f 353/127/1 354/128/1 355/114/1 356/113/1
f 357/128/1 358/129/1 359/115/1 360/114/1
f 361/129/1 362/130/1 363/116/1 364/115/1
f 365/130/1 366/131/1 367/117/1 368/116/1
f 369/131/1 370/132/1 371/118/1 372/117/1
f 373/132/1 374/133/1 375/119/1 376/118/1
f 377/74/1 378/75/1 379/64/1 380/63/1
f 381/75/1 382/76/1 383/65/1 384/64/1
f 385/76/1 386/77/1 387/78/1 388/65/1
f 389/77/1 390/79/1 391/80/1 392/78/1
f 393/81/1 394/82/1 395/70/1 396/69/1
f 397/82/1 398/83/1 399/84/1 400/70/1
f 401/83/1 402/85/1 403/71/1 404/84/1
f 405/85/1 406/86/1 407/72/1 408/71/1
f 409/86/1 410/87/1 411/88/1 412/72/1
f 413/87/1 414/89/1 415/66/1 416/88/1
f 417/89/1 418/90/1 419/67/1 420/66/1
f 421/90/1 422/91/1 423/73/1 424/67/1
f 425/92/1 426/93/1 427/75/1 428/74/1
f 429/93/1 430/94/1 431/76/1 432/75/1
f 433/94/1 434/95/1 435/77/1 436/76/1
f 437/95/1 438/96/1 439/79/1 440/77/1
f 441/97/1 442/98/1 443/82/1 444/81/1
f 445/98/1 446/99/1 447/83/1 448/82/1
f 449/99/1 450/100/1 451/85/1 452/83/1
f 453/100/1 454/101/1 455/86/1 456/85/1
f 457/101/1 458/102/1 459/87/1 460/86/1
f 461/102/1 462/103/1 463/89/1 464/87/1
f 465/103/1 466/104/1 467/90/1 468/89/1
f 469/104/1 470/105/1 471/91/1 472/90/1
f 473/106/1 474/107/1 475/93/1 476/92/1
f 477/107/1 478/108/1 479/94/1 480/93/1
f 481/108/1 482/109/1 483/95/1 484/94/1
f 485/109/1 486/110/1 487/96/1 488/95/1
f 489/111/1 490/112/1 491/98/1 492/97/1
f 493/112/1 494/113/1 495/99/1 496/98/1
f 497/113/1 498/114/1 499/100/1 500/99/1
f 501/114/1 502/115/1 503/101/1 504/100/1
f 505/115/1 506/116/1 507/102/1 508/101/1
f 509/116/1 510/117/1 511/103/1 512/102/1
f 513/117/1 514/118/1 515/104/1 516/103/1
f 517/118/1 518/119/1 519/105/1 520/104/1
f 521/120/1 522/121/1 523/107/1 524/106/1
f 525/121/1 526/122/1 527/108/1 528/107/1
f 529/122/1 530/123/1 531/109/1 532/108/1
f 533/123/1 534/124/1 535/110/1 536/109/1
f 537/125/1 538/126/1 539/112/1 540/111/1
f 541/126/1 542/127/1 543/113/1 544/112/1
f 545/127/1 546/128/1 547/114/1 548/113/1
f 549/128/1 550/129/1 551/115/1 552/114/1
f 553/129/1 554/130/1 555/116/1 556/115/1
f 557/130/1 558/131/1 559/117/1 560/116/1
f 561/131/1 562/132/1 563/118/1 564/117/1
f 565/132/1 566/133/1 567/119/1 568/118/1

