# Tiled2Unity generated file. Do not modify by hand.
# Wavefront file for 'Casa2doPiso_mesh_0002.obj'

# Vertices (Count = 212)
v -3 -2 0
v -4 -2 0
v -4 -1 0
v -3 -1 0
v -4 -2 0
v -5 -2 0
v -5 -1 0
v -4 -1 0
v -5 -2 0
v -6 -2 0
v -6 -1 0
v -5 -1 0
v -6 -2 0
v -7 -2 0
v -7 -1 0
v -6 -1 0
v -7 -2 0
v -8 -2 0
v -8 -1 0
v -7 -1 0
v -1 -3 0
v -2 -3 0
v -2 -2 0
v -1 -2 0
v -2 -3 0
v -3 -3 0
v -3 -2 0
v -2 -2 0
v -5 -3 0
v -6 -3 0
v -6 -2 0
v -5 -2 0
v -6 -3 0
v -7 -3 0
v -7 -2 0
v -6 -2 0
v -7 -3 0
v -8 -3 0
v -8 -2 0
v -7 -2 0
v -1 -4 0
v -2 -4 0
v -2 -3 0
v -1 -3 0
v -2 -4 0
v -3 -4 0
v -3 -3 0
v -2 -3 0
v -5 -4 0
v -6 -4 0
v -6 -3 0
v -5 -3 0
v -6 -4 0
v -7 -4 0
v -7 -3 0
v -6 -3 0
v -7 -4 0
v -8 -4 0
v -8 -3 0
v -7 -3 0
v -9 -4 0
v -10 -4 0
v -10 -3 0
v -9 -3 0
v -10 -4 0
v -11 -4 0
v -11 -3 0
v -10 -3 0
v -1 -5 0
v -2 -5 0
v -2 -4 0
v -1 -4 0
v -2 -5 0
v -3 -5 0
v -3 -4 0
v -2 -4 0
v -9 -5 0
v -10 -5 0
v -10 -4 0
v -9 -4 0
v -10 -5 0
v -11 -5 0
v -11 -4 0
v -10 -4 0
v -2 -8 0
v -3 -8 0
v -3 -7 0
v -2 -7 0
v -3 -8 0
v -4 -8 0
v -4 -7 0
v -3 -7 0
v -4 -8 0
v -5 -8 0
v -5 -7 0
v -4 -7 0
v -5 -8 0
v -6 -8 0
v -6 -7 0
v -5 -7 0
v -6 -8 0
v -7 -8 0
v -7 -7 0
v -6 -7 0
v -7 -8 0
v -8 -8 0
v -8 -7 0
v -7 -7 0
v -8 -8 0
v -9 -8 0
v -9 -7 0
v -8 -7 0
v -9 -8 0
v -10 -8 0
v -10 -7 0
v -9 -7 0
v -2 -9 0
v -3 -9 0
v -3 -8 0
v -2 -8 0
v -3 -9 0
v -4 -9 0
v -4 -8 0
v -3 -8 0
v -4 -9 0
v -5 -9 0
v -5 -8 0
v -4 -8 0
v -5 -9 0
v -6 -9 0
v -6 -8 0
v -5 -8 0
v -6 -9 0
v -7 -9 0
v -7 -8 0
v -6 -8 0
v -7 -9 0
v -8 -9 0
v -8 -8 0
v -7 -8 0
v -8 -9 0
v -9 -9 0
v -9 -8 0
v -8 -8 0
v -9 -9 0
v -10 -9 0
v -10 -8 0
v -9 -8 0
v -2 -10 0
v -3 -10 0
v -3 -9 0
v -2 -9 0
v -3 -10 0
v -4 -10 0
v -4 -9 0
v -3 -9 0
v -4 -10 0
v -5 -10 0
v -5 -9 0
v -4 -9 0
v -5 -10 0
v -6 -10 0
v -6 -9 0
v -5 -9 0
v -6 -10 0
v -7 -10 0
v -7 -9 0
v -6 -9 0
v -7 -10 0
v -8 -10 0
v -8 -9 0
v -7 -9 0
v -8 -10 0
v -9 -10 0
v -9 -9 0
v -8 -9 0
v -9 -10 0
v -10 -10 0
v -10 -9 0
v -9 -9 0
v -2 -11 0
v -3 -11 0
v -3 -10 0
v -2 -10 0
v -3 -11 0
v -4 -11 0
v -4 -10 0
v -3 -10 0
v -4 -11 0
v -5 -11 0
v -5 -10 0
v -4 -10 0
v -5 -11 0
v -6 -11 0
v -6 -10 0
v -5 -10 0
v -6 -11 0
v -7 -11 0
v -7 -10 0
v -6 -10 0
v -7 -11 0
v -8 -11 0
v -8 -10 0
v -7 -10 0
v -8 -11 0
v -9 -11 0
v -9 -10 0
v -8 -10 0
v -9 -11 0
v -10 -11 0
v -10 -10 0
v -9 -10 0

# Texture cooridinates (Count = 65)
vt 0.35 0.96
vt 0.375 0.96
vt 0.375 1
vt 0.35 1
vt 0.4 0.96
vt 0.4 1
vt 0.35 0.68
vt 0.375 0.68
vt 0.375 0.72
vt 0.35 0.72
vt 0.4 0.68
vt 0.4 0.72
vt 0.425 0.68
vt 0.425 0.72
vt 0.425 0.92
vt 0.45 0.92
vt 0.45 0.96
vt 0.425 0.96
vt 0.475 0.92
vt 0.475 0.96
vt 0.35 0.6
vt 0.375 0.6
vt 0.375 0.64
vt 0.35 0.64
vt 0.4 0.6
vt 0.4 0.64
vt 0.425 0.6
vt 0.425 0.64
vt 0.425 0.88
vt 0.45 0.88
vt 0.475 0.88
vt 0 0.36
vt 0.025 0.36
vt 0.025 0.4
vt 0 0.4
vt 0.05 0.36
vt 0.05 0.4
vt 0.425 0.84
vt 0.45 0.84
vt 0.475 0.84
vt 0 0.32
vt 0.025 0.32
vt 0.05 0.32
vt 0.025 0.96
vt 0.05 0.96
vt 0.05 1
vt 0.025 1
vt 0.075 0.96
vt 0.075 1
vt 0.1 0.96
vt 0.1 1
vt 0.025 0.92
vt 0.05 0.92
vt 0.075 0.92
vt 0.125 0.96
vt 0.125 1
vt 0.15 0.96
vt 0.15 1
vt 0.1 0.92
vt 0.125 0.92
vt 0.15 0.92
vt 0.025 0.88
vt 0.05 0.88
vt 0.075 0.88
vt 0.1 0.88

# Normal
vn 0 0 -1

# Mesh description
g Casa2doPiso_mesh_0002

# Faces
f 1/1/1 2/2/1 3/3/1 4/4/1
f 5/2/1 6/5/1 7/6/1 8/3/1
f 9/7/1 10/8/1 11/9/1 12/10/1
f 13/8/1 14/11/1 15/12/1 16/9/1
f 17/11/1 18/13/1 19/14/1 20/12/1
f 21/15/1 22/16/1 23/17/1 24/18/1
f 25/16/1 26/19/1 27/20/1 28/17/1
f 29/21/1 30/22/1 31/23/1 32/24/1
f 33/22/1 34/25/1 35/26/1 36/23/1
f 37/25/1 38/27/1 39/28/1 40/26/1
f 41/29/1 42/30/1 43/16/1 44/15/1
f 45/30/1 46/31/1 47/19/1 48/16/1
f 49/24/1 50/23/1 51/8/1 52/7/1
f 53/23/1 54/26/1 55/11/1 56/8/1
f 57/26/1 58/28/1 59/13/1 60/11/1
f 61/32/1 62/33/1 63/34/1 64/35/1
f 65/33/1 66/36/1 67/37/1 68/34/1
f 69/38/1 70/39/1 71/30/1 72/29/1
f 73/39/1 74/40/1 75/31/1 76/30/1
f 77/41/1 78/42/1 79/33/1 80/32/1
f 81/42/1 82/43/1 83/36/1 84/33/1
f 85/44/1 86/45/1 87/46/1 88/47/1
f 89/45/1 90/48/1 91/49/1 92/46/1
f 93/45/1 94/48/1 95/49/1 96/46/1
f 97/45/1 98/48/1 99/49/1 100/46/1
f 101/45/1 102/48/1 103/49/1 104/46/1
f 105/45/1 106/48/1 107/49/1 108/46/1
f 109/45/1 110/48/1 111/49/1 112/46/1
f 113/48/1 114/50/1 115/51/1 116/49/1
f 117/52/1 118/53/1 119/45/1 120/44/1
f 121/53/1 122/54/1 123/48/1 124/45/1
f 125/53/1 126/54/1 127/48/1 128/45/1
f 129/50/1 130/55/1 131/56/1 132/51/1
f 133/55/1 134/57/1 135/58/1 136/56/1
f 137/53/1 138/54/1 139/48/1 140/45/1
f 141/53/1 142/54/1 143/48/1 144/45/1
f 145/54/1 146/59/1 147/50/1 148/48/1
f 149/52/1 150/53/1 151/45/1 152/44/1
f 153/53/1 154/54/1 155/48/1 156/45/1
f 157/53/1 158/54/1 159/48/1 160/45/1
f 161/59/1 162/60/1 163/55/1 164/50/1
f 165/60/1 166/61/1 167/57/1 168/55/1
f 169/53/1 170/54/1 171/48/1 172/45/1
f 173/53/1 174/54/1 175/48/1 176/45/1
f 177/54/1 178/59/1 179/50/1 180/48/1
f 181/62/1 182/63/1 183/53/1 184/52/1
f 185/63/1 186/64/1 187/54/1 188/53/1
f 189/63/1 190/64/1 191/54/1 192/53/1
f 193/63/1 194/64/1 195/54/1 196/53/1
f 197/63/1 198/64/1 199/54/1 200/53/1
f 201/63/1 202/64/1 203/54/1 204/53/1
f 205/63/1 206/64/1 207/54/1 208/53/1
f 209/64/1 210/65/1 211/59/1 212/54/1

