# Tiled2Unity generated file. Do not modify by hand.
# Wavefront file for 'Casa2doPiso_mesh_0001.obj'

# Vertices (Count = 576)
v 0 -1 0
v -1 -1 0
v -1 0 0
v 0 0 0
v -1 -1 0
v -2 -1 0
v -2 0 0
v -1 0 0
v -2 -1 0
v -3 -1 0
v -3 0 0
v -2 0 0
v -3 -1 0
v -4 -1 0
v -4 0 0
v -3 0 0
v -4 -1 0
v -5 -1 0
v -5 0 0
v -4 0 0
v -5 -1 0
v -6 -1 0
v -6 0 0
v -5 0 0
v -6 -1 0
v -7 -1 0
v -7 0 0
v -6 0 0
v -7 -1 0
v -8 -1 0
v -8 0 0
v -7 0 0
v -8 -1 0
v -9 -1 0
v -9 0 0
v -8 0 0
v -9 -1 0
v -10 -1 0
v -10 0 0
v -9 0 0
v -10 -1 0
v -11 -1 0
v -11 0 0
v -10 0 0
v -11 -1 0
v -12 -1 0
v -12 0 0
v -11 0 0
v 0 -2 0
v -1 -2 0
v -1 -1 0
v 0 -1 0
v -1 -2 0
v -2 -2 0
v -2 -1 0
v -1 -1 0
v -2 -2 0
v -3 -2 0
v -3 -1 0
v -2 -1 0
v -3 -2 0
v -4 -2 0
v -4 -1 0
v -3 -1 0
v -4 -2 0
v -5 -2 0
v -5 -1 0
v -4 -1 0
v -5 -2 0
v -6 -2 0
v -6 -1 0
v -5 -1 0
v -6 -2 0
v -7 -2 0
v -7 -1 0
v -6 -1 0
v -7 -2 0
v -8 -2 0
v -8 -1 0
v -7 -1 0
v -8 -2 0
v -9 -2 0
v -9 -1 0
v -8 -1 0
v -9 -2 0
v -10 -2 0
v -10 -1 0
v -9 -1 0
v -10 -2 0
v -11 -2 0
v -11 -1 0
v -10 -1 0
v -11 -2 0
v -12 -2 0
v -12 -1 0
v -11 -1 0
v 0 -3 0
v -1 -3 0
v -1 -2 0
v 0 -2 0
v -1 -3 0
v -2 -3 0
v -2 -2 0
v -1 -2 0
v -2 -3 0
v -3 -3 0
v -3 -2 0
v -2 -2 0
v -3 -3 0
v -4 -3 0
v -4 -2 0
v -3 -2 0
v -4 -3 0
v -5 -3 0
v -5 -2 0
v -4 -2 0
v -5 -3 0
v -6 -3 0
v -6 -2 0
v -5 -2 0
v -6 -3 0
v -7 -3 0
v -7 -2 0
v -6 -2 0
v -7 -3 0
v -8 -3 0
v -8 -2 0
v -7 -2 0
v -8 -3 0
v -9 -3 0
v -9 -2 0
v -8 -2 0
v -9 -3 0
v -10 -3 0
v -10 -2 0
v -9 -2 0
v -10 -3 0
v -11 -3 0
v -11 -2 0
v -10 -2 0
v -11 -3 0
v -12 -3 0
v -12 -2 0
v -11 -2 0
v 0 -4 0
v -1 -4 0
v -1 -3 0
v 0 -3 0
v -1 -4 0
v -2 -4 0
v -2 -3 0
v -1 -3 0
v -2 -4 0
v -3 -4 0
v -3 -3 0
v -2 -3 0
v -3 -4 0
v -4 -4 0
v -4 -3 0
v -3 -3 0
v -4 -4 0
v -5 -4 0
v -5 -3 0
v -4 -3 0
v -5 -4 0
v -6 -4 0
v -6 -3 0
v -5 -3 0
v -6 -4 0
v -7 -4 0
v -7 -3 0
v -6 -3 0
v -7 -4 0
v -8 -4 0
v -8 -3 0
v -7 -3 0
v -8 -4 0
v -9 -4 0
v -9 -3 0
v -8 -3 0
v -9 -4 0
v -10 -4 0
v -10 -3 0
v -9 -3 0
v -10 -4 0
v -11 -4 0
v -11 -3 0
v -10 -3 0
v -11 -4 0
v -12 -4 0
v -12 -3 0
v -11 -3 0
v 0 -5 0
v -1 -5 0
v -1 -4 0
v 0 -4 0
v -1 -5 0
v -2 -5 0
v -2 -4 0
v -1 -4 0
v -2 -5 0
v -3 -5 0
v -3 -4 0
v -2 -4 0
v -3 -5 0
v -4 -5 0
v -4 -4 0
v -3 -4 0
v -4 -5 0
v -5 -5 0
v -5 -4 0
v -4 -4 0
v -5 -5 0
v -6 -5 0
v -6 -4 0
v -5 -4 0
v -6 -5 0
v -7 -5 0
v -7 -4 0
v -6 -4 0
v -7 -5 0
v -8 -5 0
v -8 -4 0
v -7 -4 0
v -8 -5 0
v -9 -5 0
v -9 -4 0
v -8 -4 0
v -9 -5 0
v -10 -5 0
v -10 -4 0
v -9 -4 0
v -10 -5 0
v -11 -5 0
v -11 -4 0
v -10 -4 0
v -11 -5 0
v -12 -5 0
v -12 -4 0
v -11 -4 0
v 0 -6 0
v -1 -6 0
v -1 -5 0
v 0 -5 0
v -1 -6 0
v -2 -6 0
v -2 -5 0
v -1 -5 0
v -2 -6 0
v -3 -6 0
v -3 -5 0
v -2 -5 0
v -3 -6 0
v -4 -6 0
v -4 -5 0
v -3 -5 0
v -4 -6 0
v -5 -6 0
v -5 -5 0
v -4 -5 0
v -5 -6 0
v -6 -6 0
v -6 -5 0
v -5 -5 0
v -6 -6 0
v -7 -6 0
v -7 -5 0
v -6 -5 0
v -7 -6 0
v -8 -6 0
v -8 -5 0
v -7 -5 0
v -8 -6 0
v -9 -6 0
v -9 -5 0
v -8 -5 0
v -9 -6 0
v -10 -6 0
v -10 -5 0
v -9 -5 0
v -10 -6 0
v -11 -6 0
v -11 -5 0
v -10 -5 0
v -11 -6 0
v -12 -6 0
v -12 -5 0
v -11 -5 0
v 0 -7 0
v -1 -7 0
v -1 -6 0
v 0 -6 0
v -1 -7 0
v -2 -7 0
v -2 -6 0
v -1 -6 0
v -2 -7 0
v -3 -7 0
v -3 -6 0
v -2 -6 0
v -3 -7 0
v -4 -7 0
v -4 -6 0
v -3 -6 0
v -4 -7 0
v -5 -7 0
v -5 -6 0
v -4 -6 0
v -5 -7 0
v -6 -7 0
v -6 -6 0
v -5 -6 0
v -6 -7 0
v -7 -7 0
v -7 -6 0
v -6 -6 0
v -7 -7 0
v -8 -7 0
v -8 -6 0
v -7 -6 0
v -8 -7 0
v -9 -7 0
v -9 -6 0
v -8 -6 0
v -9 -7 0
v -10 -7 0
v -10 -6 0
v -9 -6 0
v -10 -7 0
v -11 -7 0
v -11 -6 0
v -10 -6 0
v -11 -7 0
v -12 -7 0
v -12 -6 0
v -11 -6 0
v 0 -8 0
v -1 -8 0
v -1 -7 0
v 0 -7 0
v -1 -8 0
v -2 -8 0
v -2 -7 0
v -1 -7 0
v -2 -8 0
v -3 -8 0
v -3 -7 0
v -2 -7 0
v -3 -8 0
v -4 -8 0
v -4 -7 0
v -3 -7 0
v -4 -8 0
v -5 -8 0
v -5 -7 0
v -4 -7 0
v -5 -8 0
v -6 -8 0
v -6 -7 0
v -5 -7 0
v -6 -8 0
v -7 -8 0
v -7 -7 0
v -6 -7 0
v -7 -8 0
v -8 -8 0
v -8 -7 0
v -7 -7 0
v -8 -8 0
v -9 -8 0
v -9 -7 0
v -8 -7 0
v -9 -8 0
v -10 -8 0
v -10 -7 0
v -9 -7 0
v -10 -8 0
v -11 -8 0
v -11 -7 0
v -10 -7 0
v -11 -8 0
v -12 -8 0
v -12 -7 0
v -11 -7 0
v 0 -9 0
v -1 -9 0
v -1 -8 0
v 0 -8 0
v -1 -9 0
v -2 -9 0
v -2 -8 0
v -1 -8 0
v -2 -9 0
v -3 -9 0
v -3 -8 0
v -2 -8 0
v -3 -9 0
v -4 -9 0
v -4 -8 0
v -3 -8 0
v -4 -9 0
v -5 -9 0
v -5 -8 0
v -4 -8 0
v -5 -9 0
v -6 -9 0
v -6 -8 0
v -5 -8 0
v -6 -9 0
v -7 -9 0
v -7 -8 0
v -6 -8 0
v -7 -9 0
v -8 -9 0
v -8 -8 0
v -7 -8 0
v -8 -9 0
v -9 -9 0
v -9 -8 0
v -8 -8 0
v -9 -9 0
v -10 -9 0
v -10 -8 0
v -9 -8 0
v -10 -9 0
v -11 -9 0
v -11 -8 0
v -10 -8 0
v -11 -9 0
v -12 -9 0
v -12 -8 0
v -11 -8 0
v 0 -10 0
v -1 -10 0
v -1 -9 0
v 0 -9 0
v -1 -10 0
v -2 -10 0
v -2 -9 0
v -1 -9 0
v -2 -10 0
v -3 -10 0
v -3 -9 0
v -2 -9 0
v -3 -10 0
v -4 -10 0
v -4 -9 0
v -3 -9 0
v -4 -10 0
v -5 -10 0
v -5 -9 0
v -4 -9 0
v -5 -10 0
v -6 -10 0
v -6 -9 0
v -5 -9 0
v -6 -10 0
v -7 -10 0
v -7 -9 0
v -6 -9 0
v -7 -10 0
v -8 -10 0
v -8 -9 0
v -7 -9 0
v -8 -10 0
v -9 -10 0
v -9 -9 0
v -8 -9 0
v -9 -10 0
v -10 -10 0
v -10 -9 0
v -9 -9 0
v -10 -10 0
v -11 -10 0
v -11 -9 0
v -10 -9 0
v -11 -10 0
v -12 -10 0
v -12 -9 0
v -11 -9 0
v 0 -11 0
v -1 -11 0
v -1 -10 0
v 0 -10 0
v -1 -11 0
v -2 -11 0
v -2 -10 0
v -1 -10 0
v -2 -11 0
v -3 -11 0
v -3 -10 0
v -2 -10 0
v -3 -11 0
v -4 -11 0
v -4 -10 0
v -3 -10 0
v -4 -11 0
v -5 -11 0
v -5 -10 0
v -4 -10 0
v -5 -11 0
v -6 -11 0
v -6 -10 0
v -5 -10 0
v -6 -11 0
v -7 -11 0
v -7 -10 0
v -6 -10 0
v -7 -11 0
v -8 -11 0
v -8 -10 0
v -7 -10 0
v -8 -11 0
v -9 -11 0
v -9 -10 0
v -8 -10 0
v -9 -11 0
v -10 -11 0
v -10 -10 0
v -9 -10 0
v -10 -11 0
v -11 -11 0
v -11 -10 0
v -10 -10 0
v -11 -11 0
v -12 -11 0
v -12 -10 0
v -11 -10 0
v 0 -12 0
v -1 -12 0
v -1 -11 0
v 0 -11 0
v -1 -12 0
v -2 -12 0
v -2 -11 0
v -1 -11 0
v -2 -12 0
v -3 -12 0
v -3 -11 0
v -2 -11 0
v -3 -12 0
v -4 -12 0
v -4 -11 0
v -3 -11 0
v -4 -12 0
v -5 -12 0
v -5 -11 0
v -4 -11 0
v -5 -12 0
v -6 -12 0
v -6 -11 0
v -5 -11 0
v -6 -12 0
v -7 -12 0
v -7 -11 0
v -6 -11 0
v -7 -12 0
v -8 -12 0
v -8 -11 0
v -7 -11 0
v -8 -12 0
v -9 -12 0
v -9 -11 0
v -8 -11 0
v -9 -12 0
v -10 -12 0
v -10 -11 0
v -9 -11 0
v -10 -12 0
v -11 -12 0
v -11 -11 0
v -10 -11 0
v -11 -12 0
v -12 -12 0
v -12 -11 0
v -11 -11 0

# Texture cooridinates (Count = 119)
vt 0 0.6875
vt 0.03125 0.6875
vt 0.03125 0.75
vt 0 0.75
vt 0.0625 0.6875
vt 0.0625 0.75
vt 0.09375 0.6875
vt 0.09375 0.75
vt 0.125 0.6875
vt 0.125 0.75
vt 0.375 0.6875
vt 0.40625 0.6875
vt 0.40625 0.75
vt 0.375 0.75
vt 0.4375 0.6875
vt 0.4375 0.75
vt 0.46875 0.6875
vt 0.46875 0.75
vt 0.5 0.6875
vt 0.5 0.75
vt 0.71875 0.6875
vt 0.75 0.6875
vt 0.75 0.75
vt 0.71875 0.75
vt 0 0.5625
vt 0.03125 0.5625
vt 0.03125 0.625
vt 0 0.625
vt 0.0625 0.5625
vt 0.0625 0.625
vt 0.09375 0.5625
vt 0.09375 0.625
vt 0.125 0.5625
vt 0.125 0.625
vt 0.375 0.5625
vt 0.40625 0.5625
vt 0.40625 0.625
vt 0.375 0.625
vt 0.4375 0.5625
vt 0.4375 0.625
vt 0.46875 0.5625
vt 0.46875 0.625
vt 0.5 0.5625
vt 0.5 0.625
vt 0.71875 0.5625
vt 0.75 0.5625
vt 0.75 0.625
vt 0.71875 0.625
vt 0 0.5
vt 0.03125 0.5
vt 0.0625 0.5
vt 0.6875 0.5
vt 0.71875 0.5
vt 0.6875 0.5625
vt 0.09375 0.5
vt 0.125 0.5
vt 0.75 0.5
vt 0 0.4375
vt 0.03125 0.4375
vt 0.0625 0.4375
vt 0.09375 0.4375
vt 0.125 0.4375
vt 0.5 0.4375
vt 0.53125 0.4375
vt 0.53125 0.5
vt 0.5 0.5
vt 0.5625 0.4375
vt 0.5625 0.5
vt 0.59375 0.4375
vt 0.59375 0.5
vt 0.625 0.4375
vt 0.625 0.5
vt 0.65625 0.4375
vt 0.65625 0.5
vt 0.6875 0.4375
vt 0.71875 0.4375
vt 0.75 0.4375
vt 0 0.375
vt 0.03125 0.375
vt 0.0625 0.375
vt 0.09375 0.375
vt 0.125 0.375
vt 0.5 0.375
vt 0.53125 0.375
vt 0.5625 0.375
vt 0.59375 0.375
vt 0.625 0.375
vt 0.65625 0.375
vt 0.6875 0.375
vt 0.71875 0.375
vt 0.75 0.375
vt 0 0.3125
vt 0.03125 0.3125
vt 0.0625 0.3125
vt 0.09375 0.3125
vt 0.125 0.3125
vt 0.5 0.3125
vt 0.53125 0.3125
vt 0.5625 0.3125
vt 0.59375 0.3125
vt 0.625 0.3125
vt 0.65625 0.3125
vt 0.6875 0.3125
vt 0.71875 0.3125
vt 0.75 0.3125
vt 0 0.25
vt 0.03125 0.25
vt 0.0625 0.25
vt 0.09375 0.25
vt 0.125 0.25
vt 0.5 0.25
vt 0.53125 0.25
vt 0.5625 0.25
vt 0.59375 0.25
vt 0.625 0.25
vt 0.65625 0.25
vt 0.6875 0.25
vt 0.71875 0.25
vt 0.75 0.25

# Normal
vn 0 0 -1

# Mesh description
g Casa2doPiso_mesh_0001

# Faces
f 1/1/1 2/2/1 3/3/1 4/4/1
f 5/2/1 6/5/1 7/6/1 8/3/1
f 9/5/1 10/7/1 11/8/1 12/6/1
f 13/7/1 14/9/1 15/10/1 16/8/1
f 17/11/1 18/12/1 19/13/1 20/14/1
f 21/12/1 22/15/1 23/16/1 24/13/1
f 25/15/1 26/17/1 27/18/1 28/16/1
f 29/17/1 30/19/1 31/20/1 32/18/1
f 33/2/1 34/5/1 35/6/1 36/3/1
f 37/2/1 38/5/1 39/6/1 40/3/1
f 41/2/1 42/5/1 43/6/1 44/3/1
f 45/21/1 46/22/1 47/23/1 48/24/1
f 49/25/1 50/26/1 51/27/1 52/28/1
f 53/26/1 54/29/1 55/30/1 56/27/1
f 57/29/1 58/31/1 59/32/1 60/30/1
f 61/31/1 62/33/1 63/34/1 64/32/1
f 65/35/1 66/36/1 67/37/1 68/38/1
f 69/36/1 70/39/1 71/40/1 72/37/1
f 73/39/1 74/41/1 75/42/1 76/40/1
f 77/41/1 78/43/1 79/44/1 80/42/1
f 81/26/1 82/29/1 83/30/1 84/27/1
f 85/26/1 86/29/1 87/30/1 88/27/1
f 89/26/1 90/29/1 91/30/1 92/27/1
f 93/45/1 94/46/1 95/47/1 96/48/1
f 97/49/1 98/50/1 99/26/1 100/25/1
f 101/50/1 102/51/1 103/29/1 104/26/1
f 105/52/1 106/53/1 107/45/1 108/54/1
f 109/52/1 110/53/1 111/45/1 112/54/1
f 113/52/1 114/53/1 115/45/1 116/54/1
f 117/52/1 118/53/1 119/45/1 120/54/1
f 121/52/1 122/53/1 123/45/1 124/54/1
f 125/52/1 126/53/1 127/45/1 128/54/1
f 129/55/1 130/56/1 131/33/1 132/31/1
f 133/55/1 134/56/1 135/33/1 136/31/1
f 137/55/1 138/56/1 139/33/1 140/31/1
f 141/53/1 142/57/1 143/46/1 144/45/1
f 145/58/1 146/59/1 147/50/1 148/49/1
f 149/59/1 150/60/1 151/51/1 152/50/1
f 153/60/1 154/61/1 155/55/1 156/51/1
f 157/61/1 158/62/1 159/56/1 160/55/1
f 161/63/1 162/64/1 163/65/1 164/66/1
f 165/64/1 166/67/1 167/68/1 168/65/1
f 169/67/1 170/69/1 171/70/1 172/68/1
f 173/69/1 174/71/1 175/72/1 176/70/1
f 177/71/1 178/73/1 179/74/1 180/72/1
f 181/73/1 182/75/1 183/52/1 184/74/1
f 185/75/1 186/76/1 187/53/1 188/52/1
f 189/76/1 190/77/1 191/57/1 192/53/1
f 193/58/1 194/59/1 195/50/1 196/49/1
f 197/59/1 198/60/1 199/51/1 200/50/1
f 201/60/1 202/61/1 203/55/1 204/51/1
f 205/61/1 206/62/1 207/56/1 208/55/1
f 209/63/1 210/64/1 211/65/1 212/66/1
f 213/64/1 214/67/1 215/68/1 216/65/1
f 217/67/1 218/69/1 219/70/1 220/68/1
f 221/69/1 222/71/1 223/72/1 224/70/1
f 225/71/1 226/73/1 227/74/1 228/72/1
f 229/73/1 230/75/1 231/52/1 232/74/1
f 233/75/1 234/76/1 235/53/1 236/52/1
f 237/76/1 238/77/1 239/57/1 240/53/1
f 241/78/1 242/79/1 243/59/1 244/58/1
f 245/79/1 246/80/1 247/60/1 248/59/1
f 249/80/1 250/81/1 251/61/1 252/60/1
f 253/81/1 254/82/1 255/62/1 256/61/1
f 257/83/1 258/84/1 259/64/1 260/63/1
f 261/84/1 262/85/1 263/67/1 264/64/1
f 265/85/1 266/86/1 267/69/1 268/67/1
f 269/86/1 270/87/1 271/71/1 272/69/1
f 273/87/1 274/88/1 275/73/1 276/71/1
f 277/88/1 278/89/1 279/75/1 280/73/1
f 281/89/1 282/90/1 283/76/1 284/75/1
f 285/90/1 286/91/1 287/77/1 288/76/1
f 289/92/1 290/93/1 291/79/1 292/78/1
f 293/93/1 294/94/1 295/80/1 296/79/1
f 297/94/1 298/95/1 299/81/1 300/80/1
f 301/95/1 302/96/1 303/82/1 304/81/1
f 305/97/1 306/98/1 307/84/1 308/83/1
f 309/98/1 310/99/1 311/85/1 312/84/1
f 313/99/1 314/100/1 315/86/1 316/85/1
f 317/100/1 318/101/1 319/87/1 320/86/1
f 321/101/1 322/102/1 323/88/1 324/87/1
f 325/102/1 326/103/1 327/89/1 328/88/1
f 329/103/1 330/104/1 331/90/1 332/89/1
f 333/104/1 334/105/1 335/91/1 336/90/1
f 337/106/1 338/107/1 339/93/1 340/92/1
f 341/107/1 342/108/1 343/94/1 344/93/1
f 345/108/1 346/109/1 347/95/1 348/94/1
f 349/109/1 350/110/1 351/96/1 352/95/1
f 353/111/1 354/112/1 355/98/1 356/97/1
f 357/112/1 358/113/1 359/99/1 360/98/1
f 361/113/1 362/114/1 363/100/1 364/99/1
f 365/114/1 366/115/1 367/101/1 368/100/1
f 369/115/1 370/116/1 371/102/1 372/101/1
f 373/116/1 374/117/1 375/103/1 376/102/1
f 377/117/1 378/118/1 379/104/1 380/103/1
f 381/118/1 382/119/1 383/105/1 384/104/1
f 385/58/1 386/59/1 387/50/1 388/49/1
f 389/59/1 390/60/1 391/51/1 392/50/1
f 393/60/1 394/61/1 395/55/1 396/51/1
f 397/61/1 398/62/1 399/56/1 400/55/1
f 401/63/1 402/64/1 403/65/1 404/66/1
f 405/64/1 406/67/1 407/68/1 408/65/1
f 409/67/1 410/69/1 411/70/1 412/68/1
f 413/69/1 414/71/1 415/72/1 416/70/1
f 417/71/1 418/73/1 419/74/1 420/72/1
f 421/73/1 422/75/1 423/52/1 424/74/1
f 425/75/1 426/76/1 427/53/1 428/52/1
f 429/76/1 430/77/1 431/57/1 432/53/1
f 433/78/1 434/79/1 435/59/1 436/58/1
f 437/79/1 438/80/1 439/60/1 440/59/1
f 441/80/1 442/81/1 443/61/1 444/60/1
f 445/81/1 446/82/1 447/62/1 448/61/1
f 449/83/1 450/84/1 451/64/1 452/63/1
f 453/84/1 454/85/1 455/67/1 456/64/1
f 457/85/1 458/86/1 459/69/1 460/67/1
f 461/86/1 462/87/1 463/71/1 464/69/1
f 465/87/1 466/88/1 467/73/1 468/71/1
f 469/88/1 470/89/1 471/75/1 472/73/1
f 473/89/1 474/90/1 475/76/1 476/75/1
f 477/90/1 478/91/1 479/77/1 480/76/1
f 481/92/1 482/93/1 483/79/1 484/78/1
f 485/93/1 486/94/1 487/80/1 488/79/1
f 489/94/1 490/95/1 491/81/1 492/80/1
f 493/95/1 494/96/1 495/82/1 496/81/1
f 497/97/1 498/98/1 499/84/1 500/83/1
f 501/98/1 502/99/1 503/85/1 504/84/1
f 505/99/1 506/100/1 507/86/1 508/85/1
f 509/100/1 510/101/1 511/87/1 512/86/1
f 513/101/1 514/102/1 515/88/1 516/87/1
f 517/102/1 518/103/1 519/89/1 520/88/1
f 521/103/1 522/104/1 523/90/1 524/89/1
f 525/104/1 526/105/1 527/91/1 528/90/1
f 529/106/1 530/107/1 531/93/1 532/92/1
f 533/107/1 534/108/1 535/94/1 536/93/1
f 537/108/1 538/109/1 539/95/1 540/94/1
f 541/109/1 542/110/1 543/96/1 544/95/1
f 545/111/1 546/112/1 547/98/1 548/97/1
f 549/112/1 550/113/1 551/99/1 552/98/1
f 553/113/1 554/114/1 555/100/1 556/99/1
f 557/114/1 558/115/1 559/101/1 560/100/1
f 561/115/1 562/116/1 563/102/1 564/101/1
f 565/116/1 566/117/1 567/103/1 568/102/1
f 569/117/1 570/118/1 571/104/1 572/103/1
f 573/118/1 574/119/1 575/105/1 576/104/1

