# Tiled2Unity generated file. Do not modify by hand.
# Wavefront file for 'Casa2doPiso_mesh_0004.obj'

# Vertices (Count = 24)
v -3 -3 0
v -4 -3 0
v -4 -2 0
v -3 -2 0
v -3 -4 0
v -4 -4 0
v -4 -3 0
v -3 -3 0
v -4 -9 0
v -5 -9 0
v -5 -8 0
v -4 -8 0
v -7 -9 0
v -8 -9 0
v -8 -8 0
v -7 -8 0
v -4 -10 0
v -5 -10 0
v -5 -9 0
v -4 -9 0
v -7 -10 0
v -8 -10 0
v -8 -9 0
v -7 -9 0

# Texture cooridinates (Count = 12)
vt 0.925 0.75
vt 0.95 0.75
vt 0.95 0.7777778
vt 0.925 0.7777778
vt 0.925 0.7222222
vt 0.95 0.7222222
vt 0.825 0.9722222
vt 0.85 0.9722222
vt 0.85 1
vt 0.825 1
vt 0.825 0.9444444
vt 0.85 0.9444444

# Normal
vn 0 0 -1

# Mesh description
g Casa2doPiso_mesh_0004

# Faces
f 1/1/1 2/2/1 3/3/1 4/4/1
f 5/5/1 6/6/1 7/2/1 8/1/1
f 9/7/1 10/8/1 11/9/1 12/10/1
f 13/7/1 14/8/1 15/9/1 16/10/1
f 17/11/1 18/12/1 19/8/1 20/7/1
f 21/11/1 22/12/1 23/8/1 24/7/1

